<svg xmlns="http://www.w3.org/2000/svg" viewBox="-24.6 314.7 764.5 646.6"><path fill="#2A0963" d="m360.8 394.7 1.6 2c4 3.8 6.6 9.2 2.1 13.4-6.9 6.5.8 1.6 2.6 13.5 3 1.7 3.2 1.5 6.6 2.2a60 60 0 0 1 10.6 10.9c2.7 3.3 18.3 13.6 18.6 14.7l-.5 3.8c2-.1 9.9-1.5 10.5 0-.3.9-1.2 1.1-2 1.5l-3 2.1a165 165 0 0 1 48.8 43.3c21.5 29 22.8 72.3-3 99.6q-1.5-.8-3.1-1.3l.7 5c3.1 4-2.7 29.2 3 27.2 3.8-19.2-4.4-25.7 15.7-40.7 3.8-2.9 9.7-5 12.6-8.5l1.6-2 1.4-.9c2.2-1.5 3-2 5.3-3.3l1 2.9-.3 1c-.5 2.7.8 2.4 3.1 3.5 10 4.4 20 11 23.9 21.7 2.4 6.5 1.6 20.1.9 27 .8 1.5.9 1.4 2.4 2.6 3 .3 4.2 0 5 3.3-3.7 1.1-5.7.6-8 2 .6 13 0 27.5.9 40l16.2-1.4c0-5.8-1.5-18.8-.4-21.8l6 .1c-1.2 6.8-.5 17.9-.1 25.1l1.1 2.3 8.4.4 1-.7h34c0-10.7.7-28.2-.5-38.3 2.4-.9 2.8-.8 5.5-1 0 73.9.6 149-.3 222.9 5.6 2.4 4.6 3 3.8 9.2-3.7 3.4-153.4.3-172 1.8-10.5 1-28 .5-39 .5H231c-14.2 0-33.2.5-47-.5h-66.7c.3-7.2-.2-6.5 4-11.4q.4-5.6.6-11.4c-.4-65.7.4-131.4 0-197-.1-3.6-.2-13.2 2.8-14.9 3.8 6.5 2.5 32.2 2.5 41q9 0 18.3-.3c5.7-1.5 6.6 0 11.8-.8-1.1-5.4-2-65.9-.3-67.4 3-.5 4.2 2.4 4.5 4.9 1.7 11.4.9 48.4.8 62l8.7.2 4.2-.6 4.7-2.5c5.8-.8 9.6-.9 15.5-.2-.7-14.7-.4-24.9-1.6-40.5-1.7-1-6-.9-8.2-1.2 0-1 .5-2.6.8-3.7 3.4-1.9 4.3-1.1 8.9-1.1l.3-3c-1.2-9.3-3-18.2 1.1-27.2a49 49 0 0 1 26-21.1l5.3.3c14.6 4.6 31.3 17.5 30.8 34.2v14l1.1 3.2 2.7-.5c2.6-4 2.5-28.5-.8-32q-2.7-3-5-6.2a87 87 0 0 1-11.1-63.7c6.7-31.5 35.4-57.6 61.7-74.2-1.7-1.6-6.7-3.2-6.7-4.4.6-.6 4.8-.1 6 0l1.2-.7c5-4.9 12.6-7.4 18.5-12 6.2-4.9 10.7-10.4 16.4-15.4.6-1.2 1.9-2.2 3-3.3l2-.1v-2.2c7.4-11.8 10-1.4 2-13.4-2.9-4.3.5-8.4 5.6-10.3l.6-1.6c2.2-.4 2.7-.5 4.9-.6m-.1 0 1.6 2c4 3.8 6.6 9.2 2.1 13.4-6.9 6.5.8 1.6 2.6 13.5 3 1.7 3.2 1.5 6.6 2.2a60 60 0 0 1 10.6 10.9c2.7 3.3 18.3 13.6 18.6 14.7l-.5 3.8c2-.1 9.9-1.5 10.5 0-.3.9-1.2 1.1-2 1.5l-3 2.1a165 165 0 0 1 48.8 43.3c21.5 29 22.8 72.3-3 99.6q-1.5-.8-3.1-1.3V599l.8-4 1.4-.9.2-1.3c1.6-3.8 1.2-5.5 1.2-9.8-4.1 1-6 1-10.3 1.5 1.2 7.6 2.2 8.6 1.9 17.3-16.2-.3-33-2.5-48.5-2.8-39.6-.7-87.6-1.5-126.7 4.3l-.2-1.4c-1.8-8.7-1.2-8.7 1.5-17.3a21 21 0 0 0-3-3.1v-4c-2.6-2-1.2-1.5-4.3-1.5-5.7 4.6-2.5 19.7-2.9 26.8q-2.7-3-5-6.2a87 87 0 0 1-11.1-63.7c6.7-31.5 35.4-57.6 61.7-74.2-1.7-1.6-6.7-3.2-6.7-4.4.6-.6 4.8-.1 6 0l1.2-.7c5-4.9 12.6-7.4 18.5-12 6.2-4.9 10.7-10.4 16.4-15.4.6-1.2 1.9-2.2 3-3.3l2-.1v-2.2c7.4-11.8 10-1.4 2-13.4-2.9-4.3.5-8.4 5.6-10.3l.6-1.6c2.2-.4 2.7-.5 4.9-.6"/><path fill="#9F6EF2" d="m360.8 394.7 1.6 2c4 3.8 6.6 9.2 2.1 13.4-6.9 6.5.8 1.6 2.6 13.5 3 1.7 3.2 1.5 6.6 2.2a60 60 0 0 1 10.6 10.9c2.7 3.3 18.3 13.6 18.6 14.7l-.5 3.8c2-.1 9.9-1.5 10.5 0-.3.9-1.2 1.1-2 1.5l-3 2.1-2-.9c-10.3 3.4-32.7 1.9-44.4 3.8-2.5.4-4.3-2.1-6-3.9l-.2-.8-4.1-.8-1 2.7-1.6 2.5c-3.4-.1-3.7 0-7-1l-1.2-1.4c-1.7-1.9-1-1.1-2.9-2.8l-1.5.6-.6 3.6c-7.5 2.5-9-5-17-1a15 15 0 0 1-10.6-.6l-.5-.1c-1.7-1.6-6.7-3.2-6.7-4.4.6-.6 4.8-.1 6 0l1.2-.7c5-4.9 12.6-7.4 18.5-12 6.2-4.9 10.7-10.4 16.4-15.4.6-1.2 1.9-2.2 3-3.3l2-.1v-2.2c7.4-11.8 10-1.4 2-13.4-2.9-4.3.5-8.4 5.6-10.3l.6-1.6c2.2-.4 2.7-.5 4.9-.6"/><path fill="#290961" d="m360.8 394.7 1.6 2c4 3.8 6.6 9.2 2.1 13.4-6.9 6.5.8 1.6 2.6 13.5l-.7.1c-12.5-7.3-5.6 7.8-5 10.8 1 4.5.6 14 .7 18.9l-11.6-1.2c2.2-8.9 4-18.7 6.2-27.6.3-1.4-7.5-3.2-9-4 7.4-11.8 10-1.4 2-13.4-2.9-4.3.5-8.4 5.6-10.3l.6-1.6c2.2-.4 2.7-.5 4.9-.6"/><path fill="#B38DF5" d="m360.8 394.7 1.6 2-7.1.2.6-1.6c2.2-.4 2.7-.5 4.9-.6"/><path fill="#290961" d="M345.7 423c.9 1.7 1.9 4.2.8 6-6.6 11.3-7 24-21.4 25.2-2-4.4 17.7-20.4 20.6-31.3"/><path fill="#2C0967" d="M366.4 423.7h.7c3 1.6 3.2 1.4 6.6 2.1l-2.1 1c.1 4 8.3 13 11 16.3.7.4.6.4 1.1 1l2.7 3c-4.6 1-3.9 1.8-7.7 4.8-7.6-10.4-8-16.6-12.3-28.2"/><path fill="#2A0963" d="M373.7 425.8a60 60 0 0 1 10.6 10.9c2.7 3.3 18.3 13.6 18.6 14.7-14.5 4.6-22.5-19.2-31.3-24.6z"/><path fill="#2B0965" d="M307.8 453.6c5-4.9 12.6-7.4 18.5-12 6.2-4.9 10.7-10.4 16.4-15.4a114 114 0 0 1-22.7 26c-4 .5-8.2 1.3-12.2 1.4"/><path fill="#2D0A6A" d="M402.4 455.2c2-.1 9.9-1.5 10.5 0-.3.9-1.2 1.1-2 1.5-4 .5-5.7.2-9.4.5-5.8-.5-17.3 2.5-22 1.8-13.4-1.8 1.7-6 7.7-3.5 3.4 1.5 10.6.5 15.2-.3m-95.1 3.5c-1.7-1.6-6.7-3.2-6.7-4.4.6-.6 4.8-.1 6 0q.6.3 1 .9c3.4 2.5 12-1.3 13.5.8.1.2-.5.9-.2.5-2 2-6 1.6-8.4 1.6a14 14 0 0 0-4.7.7z"/><path fill="#2C0967" d="M386.4 447.1c1.4 1.3 4 3.4 4.6 5.2-.3.7 0 .4-.6.9a62 62 0 0 0-11.7-1.3c3.8-3 3.1-3.8 7.7-4.8"/><path fill="#300A70" d="M355.3 457c3-1.7 12.3-3.4 13.9 0-3 3.3-10 1-13.7.8z"/><path fill="#2C0967" d="M350.3 458.9c-4.4-1-3.2-.6-7.6-.2-.8-.6-.6-.4-1-1.5 1.5-3 6.8-2.4 9.5-1z"/><path fill="#290961" d="m351 423.3 1.4.5q1 .6 1.2 1.8c1 4.7-3 22-6 26-1.6 1.8-7 1.5-9.2 1.7q-.7.2-1.5 0l-.4-.5c-.3-1 .3-1.8.8-2.5a56 56 0 0 0 8.2-14.3q3-6.3 5.4-12.7m10.4.9.4.3c5.7 3.8 10.2 20.9 14.2 28.9l-1.6.3c-2.3.5-6.2.9-8.2-.7-2.7-2-2-11.2-2.7-14.4q-.5-1.8-.6-3.6 0-3-.6-6zM333.1 455l.3.3q.6.4 1 1 .3.5 0 1c-.5 1.2-2.5 2-3.3 2.4l-1.2-.9c-.6-.4-2-1.2-2.3-2l.1-.4c.3-.4 1.3-.5 1.8-.6l2.5-.5z"/><path fill="#4E11B7" d="M444 584.5c1.1-1.9 4.3-9.2 6.6-8.4.7 1.6-1.9 4.2-1.6 6.3 2.2 2.3 3.3-2.7 3.6-2.9.7.2 1.2 2.5 1.4 3l.2.5c-4.1 1-6 1-10.3 1.5"/><path fill="#7530EC" d="M452.8 594.1c.2 3.1.3 4.5 1 7.6q-1.6-.8-3.2-1.3V599l.8-4z"/><path fill="#8446EE" d="M299.2 682.9a919 919 0 0 0 63.7.7c-.2 4.6.1 6.6-.9 11.1.4 2 .3 3.5 1.9 4.7 2.8 1.6 4.3 2.6 6.9 4.4l3 1 1 .2 3.2 2.2.9.4c9.4 4.8 15.3 8.2 23.6 15.1l-1 1.9c4 4.5 8.2 8.8 9.7 14.8 3.5 14.6-.7 137.3 1.5 139 1.7 1.3 7.6 1.3 9.8 1.4-10.5 1-28 .5-39 .5H231c-14.2 0-33.2.5-47-.5 4.1-.5 9.8-.4 14-.4 23.7 0 47.9-.8 71.6 0l1.3-.2c-.7-6.6.6-7.3 1-13.3l1.5-.3c.2.7.6 4 1.3 4.1a82 82 0 0 0 23.5-.1l-2.7-1.8c-.7-27.4 1.5-60.8-.2-87.3 3-15.8.6-42 2.8-59.2 1.5-11.8-.7-25.8 1.2-38.4"/><path fill="#2A0963" d="m357.1 699.9 3.9 1.6c2 8 45.3 18.9 47.7 39 2 17.6 1.3 33.6 1.3 51.2l.3 87.5H303c2.6-45.5-1.6-91.8 1.7-137.3 1.6-22.2 49-34.3 52.4-42M298 863.8c-.5-24.2 0-50.3-.1-74.5 0-13.6 0-57 3-69.5l5.3 1.2-3.6 1.9c-1.6 2.5-1 2.4-1 6l1 .7c5.6-5 10-9 16-13.5 4.3-3.2 19.7-11 21.4-13.9l-5.7-2.2c-2.6-3.3-1.7-2.3-1.8-7.5 5.5.8 1.7 4.7 5.2 8l1.4-.1c3.4-3-.1-4 2.3-8 2.1 1.9 1.6 3.3 2.3 7l1.7 1.1c3.1-.6 3-.5 5.6-2.3.6-3.1.3-6.6.3-9.9l-1-1.2.6-.1-2 .7.5-1.8 2.3-.2 2.8 2.3c1.3 3.8.8 2.9-.4 7.6l2.3 1.4c-2.4 5.5-16.3 10.4-21.8 13.2-11 5.6-25.1 14.3-30.9 25.5-5.9 11.4-2.2 110.5-2.7 130.3-1.9-.7-1.8-.7-3-2.2m0 0c1.2 1.5 1.1 1.5 3 2.2l.2 13.2h-30.4c-.7-6.6.6-7.3 1-13.3l1.5-.3c.2.7.6 4 1.3 4.1a82 82 0 0 0 23.5-.1c-.2-2.2-.2-3.5-.1-5.8"/><path fill="#27085C" d="M362 694.7c.4 2 .3 3.5 1.9 4.7 2.8 1.6 4.3 2.6 6.9 4.4l3 1 1 .2 3.2 2.2.9.4c9.4 4.8 15.3 8.2 23.6 15.1l-1 1.9a196 196 0 0 0-44.4-24.7c2-2.4 2.7-3.2 5-5.2"/><path fill="#2B0965" d="M356.4 697c1.4-5.1.2-10 2-12.6 2.3 6.3 1.8 7.3-2 12.6m-46.4.8c1.2 1.3.9.8 1.7 2q1.1 1.9 2.7 3.5c.5.5 1.3 1 1.4 1.8l-.1.5q-.8.7-1.7.9l-2 .4c-3.3 1-3 6-4.3 8.6l-1-1.3c-.5-.7-1.2-1.3-1.1-2.2 0-.7.9-1.2 1.4-1.6q.8-.6 1.2-1.4c1-1.7 3.3-2.4 4-4 .2-.6.1-.8-.1-1.4q-.7-.4-1.3-.5l-1.6-.3q-.4 0-.9-.6-.1-1 .4-1.9l.8-1.3z"/><path fill="#310B73" d="m325.3 704.6 1 1.2q.6.7.4 1.6c-.4 1.7-4 3.1-5.2 4l-.8.4c-.2-.2-.7-.5-.6-.9.1-.9 1-1.6 1.6-2.1q1-.9 1.8-2z"/><path fill="#2F0A6E" d="m311.7 685.8 2.5.2h1.3q1 0 1.7.8.4 1 0 2.1l-2 .4-1.2.4q-.7.3-1.5 0-.6-.6-.6-1.6l-.1-1z"/><path fill="#420E9C" d="M337.7 686.2c.3 0 1.4.3 1.7.5l1 .4q1.6.6 3.1-.1l.4-.3h.5q.4.5.5 1.3l-.6.4q-1.4 1.3-3.4 1c-1.6-.4-2.3-1.9-3.2-3.2"/><path fill="#2C0967" d="m321 685.6 2.3.4q1.1.1 2.2.5.3 0 .2.3-.2.4-.8.5h-.4l-1.2.3-.2.4c-.2.4-.6 1.5-1.3 1.7h-.3a3 3 0 0 1-.4-1.6v-2.5m-8.6 23.8.3.1 1 .5q.6.3.8 1-.1 1-.8 1.8l-.8 1.2-1 1.6-.4.7v-1.1c.6-2.2.8-3.6 1-5.8"/><path fill="#28095D" d="M321 701.2q.6-.4 1.2-.4v.5l-.2.3-.2.8s-.9 1.1-1.3 1.2v-.7l.2-.5z"/><path fill="#290961" d="m313.7 696.4 1-.5h.7q.7.6.8 1.4l.4 1.4.4 1.3c-1.8-1.1-2.6-1.6-3.3-3.6"/><path fill="#2D0A68" d="M331.5 687h1.2q.8 0 1.2.5c.4.6 0 1.2-.2 1.8l-1.8-.6q-.5 0-.7-.6 0-.6.3-1.1"/><path fill="#26085A" d="M320 695.8c2 0 2.3-.3 2.9 1.5-2.2.3-1.9.2-3-1.5"/><path fill="#390C86" d="M317.8 692c1.8.8 1.6 2 2.2 3.8-2.2-1.4-2.6-1.2-2.2-3.7"/><path fill="#360C7E" d="m305.1 699.3.5.5c0 .5 0 .2-.3 1-.8-.2-.5 0-1-.3l.2-.4.2-.3z"/><path fill="#6215E5" d="M268 646.3c58.3-1 117.4 2.5 177 .8q-2.3 111.5-1.9 223.2L416 870l.2-83.3c.1-10.6 1.6-42.2-1.8-50.8-3-3.7-3.2-4.9-6.8-8.8l-1.2-1.5-.7-.8c-1.6-1-1.6-1-3.1-2.2-8.3-7-14.2-10.3-23.6-15l-.9-.5-3.2-2.2-1-.3-3-.9c-2.6-1.8-4-2.8-6.9-4.4-1.6-1.2-1.4-2.6-1.9-4.7 1-4.5.7-6.5 1-11.1a919 919 0 0 1-63.8-.7c-1.9 12.6.3 26.6-1.2 38.4-2.2 17.2.1 43.4-2.8 59.2 1.7 26.5-.5 60 .2 87.3l2.7 1.8a82 82 0 0 1-23.5.1c-.7-.2-1.1-3.4-1.3-4.1l-1.5.3c-.4 6-1.7 6.7-1 13.3l-1.3.2c-.5-26.1.4-52 .2-78.1z"/><path fill="#480FA9" d="M325.9 655.9c15-2.2 52-1 68.2-.8 14.8-.1 31.6-.5 46.2 0l1.8.2c.3 58.5-2 116.7-2 175.2 0 7.3.9 31.7-.6 37l-15.8.1-.2-123.6c0-22.8.6-48.5-.3-71.2-44.3.7-89.1-1-132.8-.4-.8 14.5-.4 33.6-.5 48.5l-.2 90.9c0 11.2.9 44.7-.4 54.2a22 22 0 0 1-12.4.8c-2.6-10.2.6-25.3-2.8-35.5-.6-5.2-.2-19.3-.2-25.6v-49.5l-.3-57c0-9.3-.5-23.3.3-32v-12c9.5-.8 40 .6 52 .7"/><path fill="#2E0A6C" d="m440.3 655.1 1.8.2c.3 58.5-2 116.7-2 175.2 0 7.3.9 31.7-.6 37-1.4-7.5-.8-37.5-.8-46.2l.5-90c.1-13.6.9-27 .6-40.6.3-12 0-23.8.5-35.6"/><path fill="#691EEA" d="M394.1 655c14.8 0 31.6-.4 46.2.1-.5 11.8-.2 23.7-.5 35.6-2.2-2-1.3-27.8-1.2-32.9-6 0-64.2.9-65.3-1.2.6-.6 17.3-.9 20.8-1.5"/><path fill="#7530EC" d="M273.8 655.3c9.6-.9 40 .5 52 .6 2 0 14.7 0 15.4.7.1.2.1 0 0 .4-3.4 2-57-.6-64.6.7-1 .2-2.5 8.5-2.7 9.5z"/><path fill="#6C21EB" d="M436.5 760.7q.6-.1 1.4.4c1.4 1.6 0 13.8 0 16.4-2.6-4.7-1.4-11.6-1.4-16.9"/><path fill="#2C0967" d="M293 675.4c12.8 1.3 33.7.8 47 .8l81-.2-.2 138.9c0 7.3.6 48-.4 52.4l-1.2.3c-2.2-3.2 0-115.3-3.6-134l-1.3 2.4c-3-3.7-3.2-4.9-6.8-8.8l-1.2-1.5-.7-.8c-1.6-1-1.6-1-3.1-2.2-8.3-7-14.2-10.3-23.6-15l-.9-.5-3.2-2.2-1-.3-3-.9c-2.6-1.8-4-2.8-6.9-4.4-1.6-1.2-1.4-2.6-1.9-4.7 1-4.5.7-6.5 1-11.1a919 919 0 0 1-63.8-.7c-1.9 12.6.3 26.6-1.2 38.4-2.2 17.2.1 43.4-2.8 59.2-1-6.9.2-28.7-1.5-33.4l-1 1.6c-1.2-5.8.2-63 .2-73.3"/><path fill="#9C6BF1" d="M364.4 684c17.3-1.2 34.4.4 51.7-.3a71 71 0 0 1-1 19.3q-.7 12-.3 24c0 2.1-2 .3-2.4 2 2.6 2.2 2.4.8 3.2 4.6l-1.3 2.4c-3-3.7-3.2-4.9-6.8-8.8l-1.2-1.5-.7-.8c-1.6-1-1.6-1-3.1-2.2-8.3-7-14.2-10.3-23.6-15l-.9-.5-3.2-2.2-1-.3-3-.9c-2.6-1.8-4-2.8-6.9-4.4-1.6-1.2-1.4-2.6-1.9-4.7 1-4.5.7-6.5 1-11.1z"/><path fill="#390C86" d="m363 683.6 1.4.4c.7 4 .3 8.8 6 7.1 2.9-.8 1.6-2.9 3-4.7h.2c4 4.5-2 5.8-1.3 7.3 2.5 1.6 5.4-2.6 5.5-.4.2 2.8-5 4.8-6.4 1.5-1-1.7-8.2-3.6-8.4-.2 0 1.4 3.2 1.2 3.9 2.9-.2 1.4-2 1.5-3 2-1.6-1.3-1.4-2.7-1.9-4.8 1-4.5.7-6.5 1-11.1"/><path fill="#340B7B" d="M416.1 683.7c.2 3.8.3 6.5 0 10.3l-1.6-2.2c-2.6 5.2-8.2-5.7-5.3 5.6.3 1.2 1.6 4.3-.2 4.8-1.6-.3-1.2-5.8-3.1-7.6-1.3-1.2 1.8-4.4 2.3-5.6-.3-2-2.5-2.2-.2-2.8 1.5 1 .5 4 2.6 4.5.3.1 1.5 0 1.6-.3.9-2-1.2-3.8 1.8-5.3z"/><path fill="#410E98" d="M374.8 705c3.3-1.2 9.7-2.7 13.2-2.1l-.8.3c-3.2.8-7 1.6-9.2 4z"/><path fill="#300A70" d="M405.6 725c1.6-3.8 4.8-4.8 7-.7.5 1-4.3.8-6.4 1.4z"/><path fill="#27085C" d="M388 702.9c8.6 3.7-1.2 6.4-1.4 6.3-.4-2.2 2.6-1.1.6-6z"/><path fill="#4B10B0" d="M370.8 703.8c1-2 2.4-5.7 4.9-5.8l.5.4c0 1-1.9 4.1-2.4 6.3z"/><path fill="#2A0963" d="M394.7 704.5q2.3.4 4.6.1l1.8-.4q1-.2 2 .3.9 1 1 2.4v1l.1 1.4-1-1q-.5-.7-1.3-1.2a2 2 0 0 0-1.8-.3c-1 .3-2 .8-3.1.5-1.4-.4-1.7-1.6-2.3-2.8"/><path fill="#350B7D" d="m386.7 685.3 1 .2 2 .4q.6.3 1 .8c.2.9-1.4 2.1-1.8 3l-.6 1.6-.1.4-.3.3q-.3 0-.5-.3c-1.3-2-1-4.1-.7-6.4"/><path fill="#2B0965" d="M411 707.2c1 0 1.3-.2 2.1.2q.8.5.9 1.2c.1 1-.4 1.4-1 2.2l-.6-.6-.5-.6-.2-.3c-.6-.8-.9-1.1-.7-2"/><path fill="#290961" d="m392.8 694.8-.1.5c-.5 2-3.5 3.6-5 4.7l-.1-.9q-.4-1.3 0-2.4c.3-.6 1.2-.8 1.8-.9l1.8-.4z"/><path fill="#29095F" d="M398.2 694q.7-.4 1.4-.4c.6.2.7 1 .9 1.5-.7.4-1.2 1-2 1l-.3-.2c-.3-.5 0-1.6 0-2"/><path fill="#350B7D" d="M401 690.8q.6-.4 1.4-.4c.3 0 .7.7.9.9q-.7.4-1.5.4-.6-.3-.8-.9"/><path fill="#300A70" d="m394.5 710.2.9-.1q.3 0 .4.3c0 1-.5 1.4-1 2.2-.2 0-.8.4-1.2.3q-.2 0-.2-.2v-.6l.4-.7z"/><path fill="#290961" d="m398.6 699.2 1 .1q-.1.7-.6 1.2c-.3 0-1 .4-1.4.2l.2-.5.3-.3z"/><path fill="#2A0963" d="m419.4 860.4.8.7q.3.8 0 1.7l-.1.8-.3 1.1q-.5-1-.5-2v-.8z"/><path fill="#310B73" d="M270.2 650c1.6-.8 2.1-1 4-1 37.5 1 75.5.5 113 1.1 8.7.1 49.7-1 54.8.5.5 2.4.5 2.2 0 4.7l-1.7-.2c-14.6-.5-31.4-.1-46.2 0-16.2-.2-53.2-1.4-68.2.8-12 0-42.5-1.5-52-.6-1-2.8-1.8-3.2-3.7-5.3"/><path fill="#28095D" d="M270.2 650c2 2.1 2.6 2.5 3.6 5.3l.1 11.9c-.8 8.7-.3 22.7-.3 32l.3 57v49.5c0 6.3-.4 20.4.2 25.6 0 8.5.3 26.8-.8 34.3l-1.5.3c.2-60.7.4-121.4-1-182.2q-.5-16.9-.6-33.7"/><path fill="#29095F" d="m292.8 748.7 1-1.6c1.6 4.6.4 26.5 1.4 33.4 1.7 26.5-.5 60 .2 87.3-1.1-.2-1.7-.7-2.7-1.2-1.2-37.7.3-79.7 0-118"/><path fill="#4D11B5" d="M261.7 602.8c.4-7.1-2.8-22.2 2.9-26.8 3.1 0 1.7-.4 4.3 1.5v4c.6.5 3 2.8 3 3.1-2.7 8.6-3.3 8.6-1.5 17.3l.2 1.4c39.1-5.8 87.1-5 126.7-4.3 15.5.3 32.3 2.5 48.5 2.8.3-8.7-.7-9.7-1.9-17.3 4.3-.5 6.2-.6 10.3-1.5 0 4.3.4 6-1.2 9.8l-.2 1.3-1.4.9-.9 4v1.4l.8 5a135 135 0 0 0-.3 18c.4 9.4-2.3 10 5.5 12.7l-7.8.4-2.5-1-1.5 3.5.5.7c-.9.7-22.2.6-24.7.4-13 1.8-142 2.6-152 .5q-1.6-.5-3-1.7l-1.8-.5v.6c-2.4.2-2.5.3-5 1l-.6.1c-13.3-.5-27.7 0-41 0-7 .1-16.3 2-23.4.8-1.7-1-6-.9-8.2-1.2 0-1 .5-2.6.8-3.7 3.4-1.9 4.3-1.1 8.9-1.1l.3-3c-1.2-9.3-3-18.2 1.1-27.2a49 49 0 0 1 26-21.1l5.3.3c14.6 4.6 31.3 17.5 30.8 34.2v14l1.1 3.2 2.7-.5c2.6-4 2.5-28.5-.8-32"/><path fill="#2A0963" d="m222.6 583.6 5.3.3c14.6 4.6 31.3 17.5 30.8 34.2v14c-17.2-.3-46.6-1.1-63.2-.2-1.2-9.3-3-18.2 1.1-27.2a49 49 0 0 1 26-21.1"/><path fill="#420E9A" d="M265.5 639q2.2-1.7 4.9-1.5c42.4 2.1 86.7-1.5 128.9.8 4 2.2 14.5 1.1 21.2 1.8-13 1.8-142 2.6-152 .5q-1.6-.5-3-1.7"/><path fill="#2D0A6A" d="M450.5 588c1.6.7 1.6 2.8 2.5 4.8l-.2 1.3-1.4.9-.9 4v1.4l.8 5a135 135 0 0 0-.3 18c.4 9.4-2.3 10 5.5 12.7l-7.8.4-2.5-1c-2.1.3-12 1-13.1.2v-.1c3.4-.3 9.8-.1 13.4-.1 0-4.6 1-43.2 2.5-47z"/><path fill="#28095D" d="M450.5 588c1.6.7 1.6 2.8 2.5 4.8l-.2 1.3-1.4.9-.9 4c-.7.5-.4.4-.8.5-1-.7-.7-9.5-.7-11z"/><path fill="#3B0D8B" d="M450.5 588c1.6.7 1.6 2.8 2.5 4.8l-.2 1.3-1.4.9z"/><path fill="#A274F2" d="M195.5 632c16.6-1 46-.2 63.2 0l1.1 3.3c-15-1.8-48-.1-64.6-.4z"/><path fill="#8F56F0" d="M185.5 639.7c27.4-1 51.6-.6 78.2-1.3v.6c-2.4.2-2.5.3-5 1l-.6.1c-13.3-.5-27.7 0-41 0-7 .1-16.3 2-23.4.8-1.7-1-6-.9-8.2-1.2"/><path fill="#5813CF" d="m444.7 639 .5.7c-.9.7-22.2.6-24.7.4-6.7-.7-17.2.4-21.2-1.8 9.9.5 38.6-.7 45.4.7"/><path fill="#B691F5" d="m269.9 627 .7-.9c1.6-1.3 1.2-1 2.4 1.8l1.3 1.3 1.9-1.7c3.1.2 2-.5 4 1l-3.5 2.1c8.6 5.6 119.8-3.1 138.5 3.6-3.7 2-137.7 1.3-146.4.2-.2-3.8 0-3.9 1-7.4"/><path fill="#4F11B9" d="m269.9 627 .7-.9c1.6-1.3 1.2-1 2.4 1.8z"/><path fill="#300A70" d="M304.9 611.2c-1.1-2.7-.6-3.8-1.7-6.2-.9-2-4.7-.4-5.6-1.2v-.3a232 232 0 0 1 24.8 0c.3 1.4-1 5.1-1.6 6.5-1.3-4.7-4.3-3-7.9-1.1-2.4 1.3-2.9.6-5.6 1z"/><path fill="#2A0963" d="M359.6 609c8.2-3.8 14 8.4 13.7 10-.5.4-4 .5-4.9.6-2.1 2-4.6-1.6-5.3-3.6-2.3-.9-2.7-.5-3.1-3z"/><path fill="#5713CB" d="M359.6 609c7.2 3.1 7 3.2 8.8 10.6-2.1 2-4.6-1.6-5.3-3.6-2.3-.9-2.7-.5-3.1-3z"/><path fill="#27085C" d="M363 616c2.7 1 3.2 1.7 5.4 3.6-2.1 2-4.6-1.6-5.3-3.6"/><path fill="#2A0963" d="M360 613c2 .7 2 1 3 3-2.2-.9-2.6-.5-3-3"/><path fill="#2C0967" d="M312.9 608.9c3.6-2 6.6-3.6 8 1.1-.8 4 3.2 8.9-2.4 11.4-7-3.2-.3-4 0-7.7 0-1.4-4.2-3.8-5.6-4.8m-8 2.3q1.1-.8 2.4-1.4c2.2 2 2.5 3.5 5.1 3.5 1 0 2.5.7 3 1.7-1.9 3.7-3 1.2-4.8 1-1.4 1.7.2 2-3 3-.3.3-1.4.3-1.7.2-5.5-2 0-3.1-.2-6.3z"/><path fill="#AC82F4" d="M403.7 612.5c.7.3 1.8.6 2 1.6q.2.8-.4 1.3s-.9.9-1 1.2q-.3.3 0 .7c.6 1 3.7.6 4.7 1l.5.5q-.1.6-.5 1-2-.2-3.7.7c-1 .5-1.6 1-2.7.8l-.3-.3-1.3-1.2c-.2-1.9 0-3 1-4.6z"/><path fill="#320B75" d="m280.9 614.9.5-.1v.1l-.9 1c-.5 1-.7 1.6-1.5 2.2q-1 .8-2.4.7c-1.2-.1-2.8-.2-3.8.8-.4.4-.3.4-.3 1 1 1.3 2.3 1.6 3.8 2-.3-.3-3.4-.5-4-.6-.2.2-.8 1.3-1.4 1.3l-.2-.1c-.1-.4-.2-.4-.1-.8v-3q0-1.5.9-2.7 1.3-.3 2.5 0l.5.2q2.5.6 4.6-.8z"/><path fill="#2C0967" d="m343.1 606.8 4.4 1.8c.8.3 2 1 2.4 2q.1.6-.2 1.1-.4.1-1-.2-1.3-.9-2.8-1.4l-2-.6 1 1.5 1 1.2c.3.5.8 1.3.6 2q-.2.3-.6.3l-.7-.3a7 7 0 0 1-2-4.6z"/><path fill="#300A72" d="M440 620.7c1.3.6 2.8 1 3.4 2.4 1.1 2.6.2 6.8-.9 9.3-.1-2 .4-6.2-1-7.8-.5 0-.5-.1-1 .1-.2.1-.8.7-1.2.6l.9-.5-1-.8.2-1 .1-.4z"/><path fill="#320B75" d="M400.2 626.1c-5.4-6.7-5.5-1.5-10.6-1.1v-.1c-6.1 2.8-2.6-2.7 2.8-2.3 2.6.2 3.4-1.8 4.1-2.1 1.3.5.4 1.5 3.4 2.7z"/><path fill="#27085C" d="m359.6 609 .4 4c-2.4 1.1-7 9-7.9 4.5a88 88 0 0 0 7.5-8.4"/><path fill="#26085A" d="M399.9 623.2c6.2-1.8.2 3.1 5.9 1.3 3.6-1 .6 5.5-5.6 1.6z"/><path fill="#2B0965" d="m370.8 608.2.6-.1q.3 0 .4.3c.6 2 1.3 3.2 2.8 4.7.6.7 1.2 1 1.4 1.9l-.7.8-.5.1c-.5-.1-1-.9-1.3-1.3q-1.4-1.6-2.6-3.4c-.7-1.2-.4-1.6-.1-3"/><path fill="#2E0A6C" d="M298 612.1c.9.6 3.3 2 3.3 3.1 0 .5-1 1.2-1.3 1.5q-1.4 1-2.3 2.2l-.6.5h-.4q-.2 0-.2-.3.1-.9.5-1.6a7 7 0 0 0 1-5.4"/><path fill="#27085C" d="M352 607.7q1.9.9 3 2.5.4.6.2 1.3-.5.8-1.6 1l-1.8.3h-.4v-.2l.2-.2c.4-.8 1-1.7.8-2.7z"/><path fill="#300A70" d="m363.4 623.3.3.6q0 .5-.4 1c-1.3 1.8-3.9 2-5.9 2.2v-2.3c0-.4 0-1.1.4-1.3q.3-.2.7 0c1.2.4 2.3 1 3.5.4z"/><path fill="#370C80" d="m430.6 618 .6.7c1 1.7.2 5.2-.1 7l-1.1.2q-.4 0-.4-.2-.2-.7 0-1.5c.6-2.2.8-4 1-6.3"/><path fill="#300A70" d="m329.8 623.2-.2 1.3q0 1-.2 1.7l-.4.2c-.5 0-1.4-.9-1.7-1.1h-1.2q-.7.2-1.3 0v-.2a7 7 0 0 1 2.4-1z"/><path fill="#360C7E" d="m324.3 617.2 2 .6q1 0 2 .6.5.2.5.9l-1.2.1q-1 .3-2 0c-.8-.3-1-1.4-1.3-2.2"/><path fill="#3C0D8D" d="M369 622.7q.4 0 .5.3c0 .8-.8 1.5-1.3 2l-2 2.5q-.5-.1-1-.5v-.4c0-.4.8-1 1.1-1.3q.9-.5 1.6-1.4z"/><path fill="#2A0963" d="M291.7 614.1q.8-.3 1.6-.2v.2q-.4.6-1 1.1l-.7.6-1.5 1.3h-.7v-.3c0-.7 1.9-2.3 2.3-2.7"/><path fill="#29095F" d="M434.4 614.2h1.1q0 .3-.2.5l-.1.3-.3.7-1.2.5v-.7l.3-.3z"/><path fill="#5312C2" d="M329.3 606.8q.7-.3 1.3-.2c.2.3 0 .1.2.7l-.5.3q-.5.5-1.1.6-.2-.7.1-1.4"/><path fill="#300A70" d="m415.1 622 .8-.1q1 .1 1.7 1.2l-1.2.3c-.7-.1-1-1-1.3-1.5"/><path fill="#2E0A6C" d="M372.7 625.1h.6l-.1.8-1.1.1c.2-.5 0-.2.6-.9"/><path fill="#5813CD" d="M381.1 606c.6.2.4 0 .8.3.2.3.1 0 .1.7h-.3q-.8.2-1.4 0c0-.4.6-.8.8-1"/><path fill="#2A0963" d="m490.9 577.2 1 2.9-.3 1c-.5 2.7.8 2.4 3.1 3.5 10 4.4 20 11 23.9 21.7 2.4 6.5 1.6 20.1.9 27 .8 1.5.9 1.4 2.4 2.6 3 .3 4.2 0 5 3.3-3.7 1.1-5.7.6-8 2-5.7 1.3-56.3.9-64 .4-1.5-2-1.4-1.8-3.6-2.7 2.7.2 4.4.2 7.2 0-2.6-3.7-7.4.7-9.8-2.4 2.8 0 5-.2 7.8-.4-7.8-2.6-5-3.3-5.5-12.7a135 135 0 0 1 .3-18c3.1 4-2.7 29.2 3 27.2 3.8-19.2-4.4-25.7 15.7-40.7 3.8-2.9 9.7-5 12.6-8.5l1.6-2 1.4-.9c2.2-1.5 3-2 5.3-3.3"/><path fill="#28095D" d="M451.3 605.3c3.1 4.2-2.7 29.3 3 27.3 8.1-1 58.3-.7 65.2.6.8 1.6.9 1.5 2.4 2.7 3 .3 4.2 0 5 3.3-3.7 1.1-5.7.6-8 2-5.7 1.3-56.3.9-64 .4-1.5-2-1.4-1.8-3.6-2.7 2.7.2 4.4.2 7.2 0-2.6-3.7-7.4.7-9.8-2.4 2.8 0 5-.2 7.8-.4-7.8-2.6-5-3.3-5.5-12.7a135 135 0 0 1 .3-18"/><path fill="#7B39ED" d="M451.3 605.3c3.1 4.2-2.7 29.3 3 27.3 8.1-1 58.3-.7 65.2.6.8 1.6.9 1.5 2.4 2.7-19 .6-48-1.2-65.4.2-7.8-2.6-5-3.3-5.5-12.7a135 135 0 0 1 .3-18"/><path fill="#7530EC" d="M458.5 638.8c18.8 1 49 1.4 68.3.4-3.6 1.1-5.6.6-8 2-5.6 1.3-56.2.9-63.9.4-1.5-2-1.4-1.8-3.6-2.7 2.7.2 4.4.2 7.2 0"/><path fill="#A070F2" d="m490.9 577.2 1 2.9c-4.3 1-4.6 6.6-7.7 1.3l1.4-.9c2.2-1.5 3-2 5.3-3.3"/><path fill="#290961" d="M193.7 640.9c7 1.2 16.3-.7 23.4-.7 13.3 0 27.8-.6 41 0-.2 6 1 14.4-1.4 18.9-1.4 6.6.6 17-1.3 22.4-1.6.2-17.7 2.2-18.2.2-7-1.1-12.2-.9-19.2-.6h-4.4c-5.4-.3-10.4-.2-16-.2l-2.3.5c-.7-14.7-.4-24.9-1.6-40.5"/><path fill="#FFF" d="M218 681.1c0-7.7-1.6-42.5 16.8-25 3.7 3.6 3.8 20.7 2.4 25.6-7-1.1-12.2-.9-19.2-.6m-12-31.4c4.3 4.8 4.4 4.8 7.6 10 .3 7.8.3 13.7 0 21.5-5.4-.4-10.4-.3-16-.3 1.1-14 1.1-19.2 8.4-31.2m37.4 8c6.7-9.2 7.6-10.8 13.3 1.4-1.4 6.6.6 17-1.3 22.4-5-.5-8.1-.4-13.1-.5-.1-9.9-.2-13.6 1-23.3"/><path fill="#2A0963" d="M454.9 641.6c7.7.5 58.3 1 64-.5.6 13 0 27.6.9 40-2.5.3-2.5.3-4.9 0a93 93 0 0 0-13.8.2h-4.5c-5.8-.5-13.9-.6-19.7 0h-5c-5.4-.5-9.4-.4-14.8-.4.5-4 .8-6.8.6-10.7-4-6.2-.2-17.8-2.1-25.3z"/><path fill="#FFF" d="M476.9 681.3c.5-16.4-2.5-20.3 10.5-31 3 2.7 5.4 4.7 8.6 7.2.8 8.7.7 15 .6 23.8-5.8-.5-13.9-.6-19.7 0m-19.2-11.1c1-14.2 5.2-28.3 16-8.7-.2 8-1.8 12.8-1.9 19.8-5.3-.5-9.3-.4-14.7-.4.5-4 .8-6.8.6-10.7m43.4-13.1c-1.2 1 11-8.4 8.4-7.1 1.2 1-.8 3.8 2.9 5.3 5 2.1 3 21.6 2.5 25.8a93 93 0 0 0-13.8.2c.3-7.6.1-16.5 0-24.2"/><path fill="#884BEF" d="M157.2 685c-1.1-5.4-2-65.9-.3-67.4 3-.5 4.2 2.4 4.5 4.9 1.7 11.4.9 48.4.8 62l8.7.2 4.2-.6 4.7-2.5c5.8-.8 9.6-.9 15.5-.2l2.4-.5c5.5 0 10.5-.1 16 .3h4.3c7-.4 12.2-.6 19.2.5.5 2 16.6 0 18.2-.2 2-5.4 0-15.8 1.3-22.4 2.4-4.5 1.2-13 1.4-19l.6-.1c.5 7.5-.4 36.4 1.2 41l1.1.6c2 .8 2.3.6 2.7 2.6l-2.3 1.5c-25.3 0-94.1 3-116 .1 5.7-1.5 6.6 0 11.8-.8"/><path fill="#2D0A68" d="M157.2 685c-1.1-5.4-2-65.9-.3-67.4 3-.5 4.2 2.4 4.5 4.9-1.4 20 1.6 42.2-1 61.8 0 .3-3 .7-3.2.7"/><path fill="#28095D" d="M258.7 640c.5 7.5-.4 36.4 1.2 41l1.1.6c2 .8 2.3.6 2.7 2.6-26-1.2-62-.2-88.6 0q2.4-1.5 4.7-2.6c5.8-.8 9.6-.9 15.5-.2l2.4-.5c5.5 0 10.5-.1 16 .3h4.3c7-.4 12.2-.6 19.2.5.5 2 16.6 0 18.2-.2 2-5.4 0-15.8 1.3-22.4 2.4-4.5 1.2-13 1.4-19z"/><path fill="#6015E1" d="M455.6 645c2 7.4-1.9 19 2 25.2.3 4 0 6.7-.5 10.7 5.4 0 9.4-.1 14.7.4h5c5.9-.6 14-.5 19.8 0h4.5a93 93 0 0 1 13.8-.2c2.4.3 2.4.3 4.9 0q8-.5 16.2-1.3c0-5.8-1.5-18.8-.4-21.8l6 .1c-1.2 6.8-.5 17.9-.1 25.1l1.1 2.3c-28.8 2.3-61.8.2-90.7 0-.6 0-1-2.5-1.1-3l-.2-1.4 3.2 1.6c2.2-4.7 1.5-30.8 1.8-37.8"/><path fill="#2A0963" d="m535.6 658 6 .1c-1.2 6.8-.5 17.9-.1 25.1-2.2 2.8-2.8 1.4-7 1.2q-16.8-.6-33.5-.3l.1-2.8a93 93 0 0 1 13.8-.2c2.4.3 2.4.3 4.9 0q8-.5 16.2-1.3c0-5.8-1.5-18.8-.4-21.8"/><path fill="#29095F" d="M455.6 645c2 7.4-1.9 19 2 25.2.3 4 0 6.7-.5 10.7 5.4 0 9.4-.1 14.7.4h5c5.9-.6 14-.5 19.8 0h4.5l-.1 2.8c-5.5 0-45.6.8-47.2-1.4 2.2-4.7 1.5-30.8 1.8-37.8"/><path fill="#F2EBFD" d="M263.7 639c.5 12.9-.5 26.1-.1 39 0 3-1.2 2.6-3.7 3-1.6-4.6-.7-33.5-1.2-41 2.5-.7 2.6-.8 5-1m187.6-.1c2.2.9 2.1.7 3.6 2.7l.7 3.3c-.3 7 .4 33-1.8 37.8l-3.2-1.6c1.3-11.6-.1-29.4.7-42.2"/><path fill="#7E3DED" d="m491.4 710 1.9-.2c6.3.3 20.2 12 24.7 16.7q.3 26.3 0 52.4h-21q-14.6-.2-29 0c0-17.4-.5-35 1.3-52.3a71 71 0 0 1 22.1-16.7"/><path fill="#460FA3" d="M491.9 712c2.5.5 4 1.2 6.1 2.6l3 2c4 1.7 8.1 4.1 11 7.5l4 4V776q-9 .2-17.7.1-13.8-.1-27.4 0l.2-48.9 1.2-1a235 235 0 0 0 11.3-8.8q4-3 8.3-5.5"/><path fill="#894DEF" d="M491.9 799.8c8.1 2 19.3 8 24 15.2l2 3c.5 16.8.3 33.7.4 50.5H496l-27.7.2c0-12-2-40.5.9-50.7 2.4-8.7 15.4-14.1 22.7-18.2"/><path fill="#470FA7" d="M492.4 802a58 58 0 0 1 23.4 15.8c.7 16 .2 32 .2 48q-10.2.3-20.5.2h-24.6c0-9.4-2-42 .6-48.7 2.7-7 14.4-12.3 20.9-15.2"/><path fill="#8F56F0" d="M221.6 798.8a55 55 0 0 1 18.7 10.8q3.4 3.3 4.8 7.9c3 11.2 1 38 1 50.7h-23.6l-25.6.1c0-10.8-1.9-44.3 1.6-52.5 3.7-8.9 14.8-13.3 23-17"/><path fill="#470FA7" d="M219.9 802a28 28 0 0 1 23.7 16.8c2 7.5.3 37 .3 47a1359 1359 0 0 1-44.4.3c0-15-1.5-31.4.2-46.1a14 14 0 0 1 6-10.6c4.7-3.4 8.8-5.3 14.2-7.4"/><path fill="#7E3DED" d="m219.8 710 1.3-.1c4.6 0 18 9.9 21.4 13.2q2.6 2.4 3.2 5.9c2 9.7.4 38 .3 49.8h-49c0-11.8-1.8-42 1.2-52.3 2.4-8 14.8-13 21.6-16.6"/><path fill="#470FA7" d="M220 712c8.8 2 18 9.4 24 15.7V776q-9.6.3-19 .1l-25.6-.2c.2-7.2-1.2-46.4 1.4-49.7l1.6-2c.7-1 1-1.8 2.2-2.4a9 9 0 0 0 2.3-1.6 26 26 0 0 1 7.6-5.6z"/><path fill="#8142EE" d="M559 802.7a38 38 0 0 1 16.8 10.4c2.2 18.2 1 37.3 1.1 55.6l-13 .1-20 .1c.1-13.4-1.9-41.6 1.2-53.4 1.6-6.3 8.7-9.8 13.8-12.8"/><path fill="#480FA9" d="M559.2 805a33 33 0 0 1 12.8 7.6c4.2 4.4 2.2 45.3 2 53.2q-5.7.3-11.4.2h-16.7c.1-16.7-.5-33.6.2-50.3l.8-.7c1-1 .8-1 1.8-1.8q1.3-1 2.4-2.3c2.4-2.7 5-4.2 8.1-6"/><path fill="#935CF0" d="M150.4 802.8a28 28 0 0 1 15.5 10.1l.9 1.3 1.2 1.6c.4 17.7-.2 35.4.6 53.1h-32.7c0-11.3-1.8-45.3.8-54.1 1.8-6 8.6-9.4 13.7-12"/><path fill="#480FA9" d="M148.8 805.8c3.3-.1 6.1.1 8.6 2.7q1 1.3 2.4 2.2c1.5.7 2.3 1 3 2.5l1 2q1.7 1.6 2.1 3.8c.7 3.6.7 45.3 0 46.2-1.4 1.4-6.7.8-8.4.8H138c0-10-1.5-41.7.2-49.8 1.1-5 6.8-8 10.6-10.4"/><path fill="#884BEF" d="M151 713.7c5 1 9.8 5 13.4 8.5 1.5 1.4 3 3.3 3.4 5.3 1.8 8 .5 41.1.6 51.6a912 912 0 0 0-32.5 0c-.1-10.2-1.5-42.4.3-50.6 1.5-7 9.3-11.2 14.8-14.8"/><path fill="#470FA7" d="M145.1 720.3c4.4-3.2 5.3-5.3 10.3-2 5 3.5 5.6 3.5 10.6 8.7.4 16.4.2 32.7.2 49.1q-14 .4-28.3.2c0-8-1-46 1.7-50.8.7-.6 1-1 1.8-1.5l.3-.4c1.5-1.8 1.6-2.1 3.4-3.3"/><path fill="#8040EE" d="M558.8 714.8a38 38 0 0 1 14.8 8.1c4.7 4.9 2.7 46.6 2.7 56H544c0-15.3-2.2-36.7 1.3-51.4 1.5-6.6 8.2-9.4 13.5-12.7"/><path fill="#480FA9" d="M557.4 717.8c4.4.3 4.8 1 8.6 2.7q1.4.5 2.7 1.2c2 1.2 3.9 2.4 4.4 4.8 1 3.9 2 46.8.4 48.8-1 1.3-8 .7-9.5.8h-18c0-11.3-1.5-34 .2-44 1.2-7.4 4.7-9.5 10.4-13.7z"/><path fill="#290961" d="M21.7 881.8c12.1 1.5 40-1 49 1.3 6.7 2.8 99.5-.7 115.8 1l295 .1 106.8.5c16.1.1 35.9-.2 51.7.4l-.4-2.3c15.7 0 33.3-.5 48.9.3l3.5 1.6v9.3c0 7.2 0 16.1-.6 23.2l-.1 2c6.8-.4 13.3-.1 20.2 0v4.3c0 2.2-.1 12.2-1.2 13.8l-.8-.8.1.5c-1.7-2.6.7-13.4-2-12.6-3.4.9-.5 9-2.8 12.5h-4l-2.4-.4q-1.6-.3-3.2-.1l-2.2.8-3.2-1.1-1.3.5q-2 0-4 .3c-.9.5-1 .4-2.2.4l-3.6-.7-2.3-1-3.4 1.3-2.5.1-1.8.3-3.6-.6q-1.5-.1-2.9-.5l-2 .6H657l-2.9-.1-3.8.2h-7.7q-1.7.3-3.4.2l-2.7-1.7-2.6.5-2 .8-2.4.2q-1.7-.2-3.5-.2l-3-.5-2.1.6-3.5-1.2-1.8 1.5q-1.4-1-3.3-1.8l-2.6 1.6-3-.5-2.6.4-3.3-.9-2.7 1.3-4.5-1.3c-.1 0-.9-.1-1-.4-.4-.4-.2-1.7-.2-2l.3-2.5q.1-3.8.7-7.5l-4.1.6v8.4c-.1 2-.4 2.7-1.4 4.4l-4.4-.2c-1.3 0-1.6-.1-2.5-.9q-1.6-.2-3 0l-2.2 1-3-.5-2.1.1-4-1-1 1q-2.7.5-5.6.6l-1.4-.7-3.7-.1a14 14 0 0 1-9.8.2l-1.6-.4-2.1-.2-3.8.2-.8.5c-2.7.6-4.8.8-7.5.5l-2.5.2-3-.3q-1.5-.2-3 .2-1.6.2-3.3-.2l-2-.2-2.9-1-2.7-.2-1.1.7c-4.9 1.2-7.3.2-11.9.6l-1.1-.2c-1.8.3-3.7.8-5.5.5q-1.7-.4-3.5-.2c-2.8.4-5.4-.2-8.2 0q-2-.3-4-1l-.8.4c-2.3.5-3 .4-5.2-.3l-.9.4q-2.9.3-5.9 0l-1-.4-3.2-.2c-1 .8-1.5 1-2.9 1.3l-2.7-1-1.2.3c-2 .6-2.9.7-5 .4q-3 .8-6.1.3-3-1-5.8-1.6c-2.9-2.4.4-7.8-1.7-11.2l-2.7-.4a84 84 0 0 0 0 9.7c0 .8 0 2-.6 2.6a1 1 0 0 1-.9.3q-.5-.1-.9-.5-1.4.1-3 .5l-2.3-.5-3.1-.3-2.5.6q-1.5-.7-3.1-1l-2.9 1.9-4.2-.2-1.1-.9-3.2.7h-2.7l-5.2-.4-1-.3-3-.7-2.4 1.6h-4.2l-1.7-.7-1.6.2q-1 .1-2.1.5c-1.5.4-2.8.1-4.3 0l-1.3-.1h-1.7q-2.5.4-5 .3c-.4-3.7 0-10.2-2-13.2l-2 .4c-1.1 3.7.2 8.5-1.6 11.7q-2.3.3-4.4.9l-2.5-1.1-3.2.3-2.1.6-3.6-.6-1.6.8-4.4-.8-.5-1.2-4.7 1.3-1.6.2-2.2.6a3 3 0 0 1-2.6-.6c-1.4-1-1.2-1-2.8-1.1l-1 1c-2.5.5-3.5.6-6-.2l-.7-.3-3.3-.1-1 .5c-2.5.7-5.3 1.3-7.9.6l-1.6-.5-1.5-.3-1 .2c-2.6.4-4.4.3-7-.2h-3.7l-.6.3q-.6 0-1.1-.4l-.3-.3-1-.5-1 .1q-1 .4-1.9 1.2-1.9 1.2-4.1.5l-2.2-.7-.8-.2-4.1.2-2.2.2-4-.3-1 .1q-2.8.9-5.9.9h-3c-1 0-1.4 0-2.3-.2q-.8-3.4-.6-7v-.8l-1.4-.2.1-4-1-.4c-1.3 3.6-.9 7.3-2.2 10.5l-.6 1-4.2-.6-2.4.8c-1.2-.5-2-.4-3.3-.4l-3 1h-3.7l-1.6-.7-2.6.6-3-.2q-1.5.4-3 .5l-2.2-1.8-3.4.7q-1.1.5-2.2.6l-1.7.2c-2.3.2-2.7.3-4.9-.6l-2 .3q-1.2.1-2.3.5c-1.1.3-2.3 0-3.4 0l-1.9-.1-1.3-.5-4-.1-2.1.4H185c-2.7.8-5.8.5-8.6.2h-7.9l-2.2-1-3.3.5-1.5.7-3.9-1.3-2.5.9-3.2-.2-2.9.3h-3.8l-1.4-.1-1.4.2c-3 .3-5.3.2-8.3 0l-1 .1h-5.4l-2-.6-4.6.4-1.4.2h-9.5l-1.5-.1h-4.6l-1.4-.2q-2.2.3-4.7.2l-1.2-.1-4.4.1h-1.7L87 936l-2-.1-3.3 1-2.2-.5-4.2.3H74l-2 .2-7 .1q-1.7.2-3.4-.1l-2-.6-1.3-.2a12 12 0 0 1-6.7 1c-2.4 0-4.3 0-6.5-1l-.7-.6h-3.1l-2 1-2.8-1.7-3.4 1q-2 0-3.8-.4l-2.3 1.2-3.5-1.3-2.6.2-4.2 1.3-1.8-.6a12 12 0 0 1-7.7.6l-1-.8c-.7-.5-.6-1.9-.6-2.6q.3-4.5-.2-9c-.7-1.3-1.2-3.6-1.6-5.1 4.2-.8 10-.6 14.4-.6q.1-13.7-.5-27.2c.6-5 .3-5.6 4.2-8z"/><path fill="#26085A" d="M691.3 919.3c6.8-.5 13.3-.2 20.2-.2v4.4c0 2.2-.1 12.2-1.2 13.8l-.8-.8.1.5c-1.7-2.6.7-13.4-2-12.6-3.4.9-.5 9-2.8 12.5h-4l-2.4-.4q-1.6-.3-3.2-.1l-2.2.8-3.2-1.1-1.3.5q-2 0-4 .3c-.9.5-1 .4-2.2.4l-3.6-.7-2.3-1-3.4 1.3-2.5.1-1.8.3-3.6-.6q-1.5-.1-2.9-.5l-2 .6H657l-2.9-.1-3.8.2h-7.7q-1.7.3-3.4.2l-2.7-1.7-2.6.5-2 .8-2.4.2q-1.7-.2-3.5-.2l-3-.5-2.1.6-3.5-1.2-1.8 1.5q-1.4-1-3.3-1.8l-2.6 1.6-3-.5-2.6.4-3.3-.9-2.7 1.3-4.5-1.3c-.1 0-.9-.1-1-.4-.4-.4-.2-1.7-.2-2l.3-2.5q.1-3.8.7-7.5l-4.1.6v8.4c-.1 2-.4 2.7-1.4 4.4l-4.4-.2c-1.3 0-1.6-.1-2.5-.9q-1.6-.2-3 0l-2.2 1-3-.5-2.1.1-4-1-1 1q-2.7.5-5.6.6l-1.4-.7-3.7-.1a14 14 0 0 1-9.8.2l-1.6-.4-2.1-.2-3.8.2-.8.5c-2.7.6-4.8.8-7.5.5l-2.5.2-3-.3q-1.5-.2-3 .2-1.6.2-3.3-.2l-2-.2-2.9-1-2.7-.2-1.1.7c-4.9 1.2-7.3.2-11.9.6l-1.1-.2c-1.8.3-3.7.8-5.5.5q-1.7-.4-3.5-.2c-2.8.4-5.4-.2-8.2 0q-2-.3-4-1l-.8.4c-2.3.5-3 .4-5.2-.3l-.9.4q-2.9.3-5.9 0l-1-.4-3.2-.2c-1 .8-1.5 1-2.9 1.3l-2.7-1-1.2.3c-2 .6-2.9.7-5 .4q-3 .8-6.1.3-3-1-5.8-1.6c-2.9-2.4.4-7.8-1.7-11.2l-2.7-.4a84 84 0 0 0 0 9.7c0 .8 0 2-.6 2.6a1 1 0 0 1-.9.3q-.5-.1-.9-.5-1.4.1-3 .5l-2.3-.5-3.1-.3-2.5.6q-1.5-.7-3.1-1l-2.9 1.9-4.2-.2-1.1-.9-3.2.7h-2.7l-5.2-.4-1-.3-3-.7-2.4 1.6h-4.2l-1.7-.7-1.6.2q-1 .1-2.1.5c-1.5.4-2.8.1-4.3 0l-1.3-.1h-1.7q-2.5.4-5 .3c-.4-3.7 0-10.2-2-13.2l-2 .4c-1.1 3.7.2 8.5-1.6 11.7q-2.3.3-4.4.9l-2.5-1.1-3.2.3-2.1.6-3.6-.6-1.6.8-4.4-.8-.5-1.2-4.7 1.3-1.6.2-2.2.6a3 3 0 0 1-2.6-.6c-1.4-1-1.2-1-2.8-1.1l-1 1c-2.5.5-3.5.6-6-.2l-.7-.3-3.3-.1-1 .5c-2.5.7-5.3 1.3-7.9.6l-1.6-.5-1.5-.3-1 .2c-2.6.4-4.4.3-7-.2h-3.7l-.6.3q-.6 0-1.1-.4l-.3-.3-1-.5-1 .1q-1 .4-1.9 1.2-1.9 1.2-4.1.5l-2.2-.7-.8-.2-4.1.2-2.2.2-4-.3-1 .1q-2.8.9-5.9.9h-3c-1 0-1.4 0-2.3-.2q-.8-3.4-.6-7v-.8l-1.4-.2.1-4-1-.4c-1.3 3.6-.9 7.3-2.2 10.5l-.6 1-4.2-.6-2.4.8c-1.2-.5-2-.4-3.3-.4l-3 1h-3.7l-1.6-.7-2.6.6-3-.2q-1.5.4-3 .5l-2.2-1.8-3.4.7q-1.1.5-2.2.6l-1.7.2c-2.3.2-2.7.3-4.9-.6l-2 .3q-1.2.1-2.3.5c-1.1.3-2.3 0-3.4 0l-1.9-.1-1.3-.5-4-.1-2.1.4H185c-2.7.8-5.8.5-8.6.2h-7.9l-2.2-1-3.3.5-1.5.7-3.9-1.3-2.5.9-3.2-.2-2.9.3h-3.8l-1.4-.1-1.4.2c-3 .3-5.3.2-8.3 0l-1 .1h-5.4l-2-.6-4.6.4-1.4.2h-9.5l-1.5-.1h-4.6l-1.4-.2q-2.2.3-4.7.2l-1.2-.1-4.4.1h-1.7L87 936l-2-.1-3.3 1-2.2-.5-4.2.3H74l-2 .2-7 .1q-1.7.2-3.4-.1l-2-.6-1.3-.2a12 12 0 0 1-6.7 1c-2.4 0-4.3 0-6.5-1l-.7-.6h-3.1l-2 1-2.8-1.7-3.4 1q-2 0-3.8-.4l-2.3 1.2-3.5-1.3-2.6.2-4.2 1.3-1.8-.6a12 12 0 0 1-7.7.6l-1-.8c-.7-.5-.6-1.9-.6-2.6q.3-4.5-.2-9c-.7-1.3-1.2-3.6-1.6-5.1 57.6 2.2 124.7.6 183 .6h442.5c16.5 0 44.6-1 60 .2z"/><path fill="#C5A7F7" d="m167.7 923.6 1.4.3q1.8 0 3.5.3c5-.3 10 0 14.9-.2l9 .2c4.8.2 12.7-.1 17.6-.4l1 .2c.6 4 .3 8 .5 12q-1.1.5-2.2.6l-1.7.2c-2.3.2-2.7.3-4.9-.6l-2 .3q-1.2.1-2.3.5c-1.1.3-2.3 0-3.4 0l-1.9-.1-1.3-.5-4-.1-2.1.4H185c-2.7.8-5.8.5-8.6.2h-7.9l-2.2-1c.5-5.4 0-7 1.3-12.3"/><path fill="#D4BFF9" d="m167.7 923.6 1.4.3q1.8 0 3.5.3l.3.5q-1.2 5.8 0 11.6v.6h-4.3l-2.2-1c.5-5.4 0-7 1.3-12.3"/><path fill="#2F0A6E" d="m167.7 923.6 1.4.3c-.1 4 0 9.2-.5 13l-2.2-1c.5-5.4 0-7 1.3-12.3"/><path fill="#290961" d="M206.8 936.2c.2-2.2-.6-9.2 1.2-10.6l1.3-.7q.4 3.5.4 7.1v1.1q.2 1.4-.5 2.3c-.4.6-2 .7-2.4.8"/><path fill="#2F0A6E" d="M173 924.7c2.3 2.5 2.2 4.5 2 7.9 0 .8-.2 2-.9 2.7l-1.3 1q-1-5.8.1-11.6"/><path fill="#300A70" d="m214 923.8 1.1.2c.6 4 .3 8 .5 12q-1.1.5-2.2.6c-.4-5.3-.8-7.8.7-12.8"/><path fill="#2B0965" d="M189.8 936.7c0-1.9-.9-9.3.7-10.8q.1-.1.4 0 .4 0 .6.4c.7 1.3.5 2.9.5 4.2l-.1 5.8z"/><path fill="#26085A" d="M195.9 936.4c0-2.5-.8-8.5.8-10.6q.2-.3.6-.3.4.2.6.8c1 2.7.3 7.7-.7 10.6z"/><path fill="#28095D" d="M184.3 925a9 9 0 0 1 1.5 8l-.7 3.6c-2-3.7-1.1-7.7-.8-11.7"/><path fill="#2B0965" d="M202.3 924.8c1 1.1 1.3 1.6 1.1 3.1q-.4 4.3-.5 8.7c-.5-.4-1.3-.8-1.6-1.5-1.4-2.5.1-7.8 1-10.3"/><path fill="#29095F" d="m178 925.4 1.5 1.2c1.4 1.7.6 7.9.5 9.9l-1.1-.9c-1.8-1.4-.9-8-1-10.2"/><path fill="#D4BFF9" d="m35.6 924 2 .1 1.9.2c7.4.3 15.1 0 22.6 0 0 2.6-.9 9.7.5 11.8.4.1.3.2.7 0 .7-.4.9-1.4.9-2a45 45 0 0 0-.4-9.4c.3-.4 1.2-.5 1.7-.6q1-.1 1.9.4c1.1 1 .6 3.8.6 5l-.1 4q-.2 1.6.7 2.8c.6 0 .5 0 .8-.3.8-1 .6-2.3.5-3.5l.1-8.2h15.4L85 936l-3.4 1-2.2-.5-4.2.3H74l-2 .2-7 .1q-1.7.2-3.4-.1l-2-.6-1.3-.2a12 12 0 0 1-6.7 1c-2.4 0-4.3 0-6.5-1l-.7-.6h-3.1l-2 1-2.8-1.7a8 8 0 0 1-1.2-6.4z"/><path fill="#2E0A6C" d="M56.5 924.6c1.3.7 2 1 2.4 2.4.7 2.7 0 6.4-.7 9.2-1-.8-1.7-1-1.9-2.2-.3-2.4.2-5.5.2-7.9z"/><path fill="#300A70" d="M73.9 936.8q-.4-2.7-.3-5.3l-.1-3q-.2-1.5.4-2.8l.7-.5q.5 0 .8.3c1.3 1.3.5 6 .5 7.5q0 2-.7 3.8z"/><path fill="#2D0A6A" d="m44.3 935.6.3-1.6c.2-2.4-1.1-7 .5-8.8q.9-.1 1.4.5.5 1 .2 2.2-.1 1.6.3 3.1c.1 1.3.2 3-.6 4l-1.4 1.3zm35.1.9c0-2.2-.6-9.4 1-11h.6c.4.1.6 1 .7 1.4.3 1.3 0 2.8 0 4.1v6z"/><path fill="#290961" d="M39.1 936.6c-.2-2.5-1.2-8.5.2-10.8q.1-.4.6-.4t.6.4c.8 1.4.5 3.7.5 5.2l.2 4.7zm11.7-12q1 .6 1.8 1.6c1.6 3.2-.4 8-1.3 11.2a13 13 0 0 1-.7-4.4q-.2-4.2.2-8.4"/><path fill="#C1A2F6" d="M467 923.8c1.2-.5 1.3-.5 2.4-.5h6.6l6.2.6q2.8.2 5.8 0h3.5q2.5 0 4.9-.4c.5 0 .2 0 1 .3q3.8.3 7.6.2 3 0 5.8.2l-1.2 2.2q.5 4.5.5 9.1l-1.1.7c-4.9 1.2-7.3.2-11.9.6l-1.1-.2c-1.8.3-3.7.8-5.5.5q-1.7-.4-3.5-.2c-2.8.4-5.4-.2-8.2 0q-2-.3-4-1l-.8.4c-2.3.5-3 .4-5.2-.3l-.9.4-.2-.3-.7-.8c-.8-1-.2-3.1-.2-4.3l.2-3.5c.3-1.5.6-2.3 0-3.7"/><path fill="#BC9AF6" d="M497.4 923.8q3.8.3 7.6.2 3 0 5.8.2l-1.2 2.2q.5 4.5.5 9.1l-1.1.7c-4.9 1.2-7.3.2-11.9.6.6-1.5.8-2.2.8-3.8l-.2-3.5q0-2.9-.3-5.7"/><path fill="#290961" d="M509 936.2q-1.6-3.6-1-7.7c.2-1.3.6-1.4 1.6-2q.5 4.5.5 9z"/><path fill="#390C86" d="M500.5 924.4c1 .5 2.5.8 3.3 1.7q.5.8.3 1.5a3 3 0 0 0 .2 2.5q1 2.8 1.5 5.5l-1.6.4a3 3 0 0 1-2.5-.2c-.8-.7-.9-2.3-1-3.3z"/><path fill="#310B73" d="M467 923.8c1.2-.5 1.3-.5 2.4-.5h6.6l6.2.6-5 .4.8 1c.1 3.8-.1 7.5.9 11.3l-.1.3q-2-.3-4-1l-.8.4c-2.3.5-3 .4-5.2-.3l-.9.4-.2-.3-.7-.8c-.8-1-.2-3.1-.2-4.3l.2-3.5c.3-1.5.6-2.3 0-3.7"/><path fill="#E1D1FB" d="M468.8 936q-.1-5.1.8-10.1.2-1.2 1.3-1.8c.6-.2.5-.1 1.1 0 .9 1.1.4 2.7.3 4v4.9c.1 1.9.3 2 1.7 3.3-2.3.5-3 .4-5.2-.3"/><path fill="#D4BFF9" d="M474.7 936c0-2-.6-10 .7-11.4.4-.4 1.5-.3 1.8-.3l.8 1c.1 3.8-.1 7.5.9 11.3l-.1.3q-2-.3-4-1"/><path fill="#3D0D8F" d="M496.4 923.5c.5 0 .2 0 1 .3.3 2 .3 3.6.3 5.7l.2 3.5c0 1.6-.2 2.3-.8 3.8l-1.1-.2q-.8-6.5.4-13.1"/><path fill="#370C82" d="M478 925.2c.8.1 1.6 0 2.1.7 1.3 1.4.5 4.5.3 6.1a13 13 0 0 1-1.5 4.6c-1-3.8-.8-7.5-.9-11.4"/><path fill="#2F0A6E" d="m484.5 924.6 1 .8c1.6 1.4.7 9.3.8 11.3q-1-.6-1.6-1.3c-1.7-2-.4-8.6-.2-10.8"/><path fill="#2B0965" d="M491.3 924.6c.7 1.5 1 2.2.9 3.9v1c-.1 2.1-.1 3.5-.7 5.5q-.8-.4-1.3-1.1c-1-2.8.2-6.7 1.1-9.3"/><path fill="#DCCAFA" d="m524 924 2.7-.4q4.9.4 9.8.5l11.7-.1-.2 6.5c0 1.6-1.2 4.4 0 5.7q.4.2 1 0 .8-.6.9-1.7c.5-2.9.1-6.1-.2-9v-.9q1.2-.8 2.7-1.2l.4-.1 2.9.6c-.4 4.2-.6 8-.6 12.3a14 14 0 0 1-9.8.2l-1.6-.4-2.1-.2-3.8.2-.8.5c-2.7.6-4.8.8-7.5.5l-2.5.2-3-.3q-1.5-.2-3 .2-1.6.2-3.3-.2l-2-.2-2.9-1-2.7-.2q0-4.5-.5-9l1.2-2.3 2.9-.7 1.8.4h1.8a2 2 0 0 1 1.7.9c1 1.5-.1 7.4-.2 9.2q-.2 1 .4 1.8.5.4 1.2 0 .4-.2.5-.8c.2-.8 0-2.3 0-3-.1-1.5-.8-6.2.4-7.4.7-.6 1.9-.5 2.7-.7m-13.2.3 2.9-.7c-.7 4.1-.6 8.1-.9 12.3l-2.7-.3q0-4.5-.5-9z"/><path fill="#350B7D" d="m524 924 2.7-.4q0 4.7.3 9.4c0 .7.2 2.1-.3 2.8a1 1 0 0 1-.8.5l-1-.2a4 4 0 0 1-.7-2.6l.2-6.5-.1-2.2z"/><path fill="#300A72" d="m513.7 923.6 1.8.3q-.3 5.8.2 11.7v1.1l-2.9-1c.3-4 .2-8 .9-12.2"/><path fill="#2F0A6E" d="m552.8 923.3 2.9.6c-.4 4.2-.6 8-.6 12.3l-1.3-1c-.8-.5-1-1.8-.9-2.6v-9.3m-11.3 12.5.1-1.6a29 29 0 0 0-.3-6.5q-.2-.7 0-1.4c.4-.3 1.3-.5 1.7-.5q.4 0 .6.4c1.2 1.9 0 7.7 0 9.8z"/><path fill="#310B73" d="M537 936.5c-1.3-3-2.1-7-.9-10.1q.1-.6.7-.8l.5.1c1.5 1.4.5 8.4.5 10.3z"/><path fill="#2A0963" d="m530.1 925.5 1.2.8c1.7 1.4.8 8.2.8 10.2l-1.4-1c-1.6-2-.6-7.9-.6-10"/><path fill="#DCCAFA" d="m134.4 924 12.4.2c6.4 0 14.8.4 20.8-.6-1.1 5.4-.7 6.9-1.2 12.3l-3.3.5-1.5.7-3.9-1.3-2.5.9-3.2-.2-2.9.3h-3.8l-1.4-.1-1.4.2c-3 .3-5.3.2-8.3 0 .7-3.8.8-8-.3-11.6z"/><path fill="#BB98F6" d="m134.4 924 12.4.2-1.4 2c.6 3.7 1 7.1-.1 10.7l-1.4-.2-1.4.2c-3 .3-5.3.2-8.3 0 .7-3.8.8-8-.3-11.6z"/><path fill="#2B0965" d="M144 936.7c-.2-2.7-.9-7.7.1-10.2q.1-.3.5-.6c.4 0 .1 0 .8.4.6 3.6 1 7-.1 10.6z"/><path fill="#29095F" d="M139.2 924.6c1.4 3.2 1.3 7 .3 10.3q-.8-.4-1.3-1c-1-2.7.1-6.7 1-9.3"/><path fill="#320B75" d="M149.1 936.8c-.1-3-.7-7.7.4-10.6q.3-.7 1-1.2.3 0 .5.2c.4.5.6 1.6.6 2.2q-.1 4.5.4 9.1z"/><path fill="#2B0965" d="M155.2 936.7c-.2-2.8-1.1-8.8.7-11.3l.3-.5.5-.1c.7.8.9 1 .9 2l-.2 2.7q0 3.2.3 6.3z"/><path fill="#2D0A6A" d="M161.6 937q-.4-1.4-.6-3c-.2-2.4-.6-6.9 1.2-9q.4 0 .7.2c1.1 1 .2 9.4.2 11.2z"/><path fill="#BC9AF6" d="M263.2 924H274l5.7.1h8.8q2.7-.1 5.4-.6c-1 4.3-1 8.2-1 12.6h-3.7l-.6.3q-.6 0-1.1-.4l-.3-.3-1-.5-1 .1q-1 .4-1.9 1.2-1.9 1.2-4.1.5l-2.2-.7-.8-.2-4.1.2-2.2.2-4-.3-1 .1c-1.3-3.5-1-6-.6-9.7z"/><path fill="#CEB6F8" d="M279.7 924.1h8.8q2.7-.1 5.4-.6c-1 4.3-1 8.2-1 12.6h-3.7l-.6.3q-.6 0-1.1-.4l-.3-.3-1-.5-1 .1q-1 .4-1.9 1.2-1.9 1.2-4.1.5l-2.2-.7.9-.9c.5-.5.5-1.6.4-2.3q-.2-4 .5-8z"/><path fill="#2D0A68" d="M286.3 935.2c.3-1.8.3-8.3 1.7-9.5l.7-.2q.4.1.7.6c1.2 2.5-.1 7.3-.2 10l-.6.3q-.6 0-1.1-.4l-.3-.3z"/><path fill="#300A72" d="M276.2 936.1c-.1-2.8-1-7.8.6-10.2.4-.7 1.4-.7 2-.8q-.7 4-.5 8c0 .7.1 1.8-.4 2.3l-.9 1z"/><path fill="#290961" d="M264.3 926.6q1 .4 1.5 1c.8 2.3.2 6.2.1 8.6l-1 .1c-1.3-3.5-1-6-.6-9.7"/><path fill="#26085A" d="M269.9 936.5c0-2.3-.7-8.3.7-10l.6-.2q.3.1.5.5c1 2.3.4 7 .4 9.5z"/><path fill="#E3D5FB" d="M689.8 936.1c0-2.2-.8-9.5 1-11q.3-.4.8-.2.8.3 1 1.1c1.1 3 .4 8 .4 11.2z"/><path fill="#C1A2F6" d="m132.3 923.5 2 .6-.4 1.2q1.5 5.8.3 11.5l-1 .2h-5.4l-2-.6-4.6.4-1.4.2h-9.5c1.1-3.9.6-8.8.6-12.9q2.2 0 4.5-.6l1.3.5a73 73 0 0 0 15.6-.5"/><path fill="#C9AEF8" d="m115.4 923.5 1.3.5c.2 4.3.6 8.8-.3 13h-6.1c1.1-3.9.6-8.8.6-12.9q2.2 0 4.5-.6"/><path fill="#340B79" d="m115.4 923.5 1.3.5c.2 4.3.6 8.8-.3 13h-1.7c-1-4-.9-9.6.7-13.5"/><path fill="#290961" d="M125.8 936.4c0-2-.6-9.1 1-10.5q.5-.3.8-.1.5.2.6.7.3 1.3.2 2.5l.2 1.6q.1 2-.5 3.9l-.3 2.4z"/><path fill="#2E0A6C" d="M119.8 937c0-2.4-.8-10 .9-12h.5q.6.2.7.8c.6 1.9 0 5.2 0 7.2 0 1.5-.2 2.4-.7 3.8z"/><path fill="#2B0965" d="M134 925.3q1.4 5.8.2 11.5l-1 .2-1-1.7q.6-2.6.8-5.3c0-2.1 0-2.8 1-4.7"/><path fill="#430E9E" d="m132.3 923.5 2 .6-.4 1.2c-.8 1.9-.9 2.6-1 4.7q0 2.6-.6 5.3c-.3-4.7-.4-7 0-11.8"/><path fill="#CFB8F8" d="m293.9 923.5 1.8.3 9.8.3h11q0 5.9-.3 11.8l-3.3-.1-1 .5c-2.5.7-5.3 1.3-7.9.6l-1.6-.5-1.5-.3-1 .2c-2.6.4-4.4.3-7-.2 0-4.4 0-8.3 1-12.6"/><path fill="#2B0965" d="m293.9 923.5 1.8.3c-.2 2.1.2 10.1-1.5 11.4q-.8.4-1.3 1c0-4.5 0-8.4 1-12.7m18.1 12.8c-1.4-1.3-1.6-1.6-1.6-3.5l.2-2.9.1-1.5q.1-1.6 1.1-2.7.4-.5 1-.4l.4.1c.5 1 .2 1.7 0 2.6-.5 2.6-.3 5.2-.3 7.8z"/><path fill="#29095F" d="M300 936.3c-1.2-1.1-1.5-1.2-1.6-2.8l.3-3 .2-2c0-1 .3-2.2 1-2.8q.4-.2.8-.1.4.2.6.8.3 1.6-.2 3.1-.3 3.3-.2 6.6zm5.7-11.9c.9 1.3 1.4 2 1.4 3.6v4.5c-.1 1.6-.3 1.7-1.5 2.7l-.7-.4c-.5-.4-.2-1.8-.2-2.3q.3-4.1 1-8.1"/><path fill="#C9AEF8" d="m643.6 923.6 1.5.2 2.5.5c2.4-.1 10.5-1.2 12.2.2q.7.9.5 1.9v1.6q-.3 4.4-.1 8.8H657l-2.9-.1-3.8.2h-7.7q-1.7.3-3.4.2l-2.7-1.7c.6-4 .3-7.8 1-11.8l1.9.6q2-.1 4-.6"/><path fill="#E3D5FB" d="m643.6 923.6 1.5.2 2.5.5.8 1c.1 3.8-.1 7.7.3 11.5h-4.2l-1.8.2-3.4.1-2.7-1.7c.6-4 .3-7.8 1-11.8l1.9.6q2-.1 4-.6"/><path fill="#DCCAFA" d="m645 923.8 2.6.5.8 1c.1 3.8-.1 7.7.3 11.5h-4.2c.9-4.1.5-8.7.6-13"/><path fill="#300A70" d="m643.6 923.6 1.5.2c-.1 4.3.3 8.9-.6 13l-1.8.2q-.2-1.5-.1-3.1l.1-2.9c0-2.7.3-4.8.9-7.4"/><path fill="#2F0A6E" d="m637.5 923.6 2 .6q-.6 6.4-.2 12.9l-2.7-1.7c.6-4 .3-7.8 1-11.8"/><path fill="#340B79" d="M648.4 925.3q1.4.1 2 1c1.3 2.7.7 7.9 0 10.6h-1.7c-.4-3.9-.2-7.8-.3-11.6"/><path fill="#310B73" d="M654.2 936.7c-.2-3.4-1-8.6.9-11.6h-.1.5a4 4 0 0 1 1 2.9l-.2 2q0 3.5.8 6.8z"/><path fill="#E3D5FB" d="M467 923.8c.6 1.4.3 2.2 0 3.7l-.2 3.5c0 1.2-.6 3.2.2 4.3l.7.8.2.3q-2.9.3-5.9 0l-1-.4-3.2-.2c-1 .8-1.5 1-2.9 1.3l-2.7-1-1.2.3c-2 .6-2.9.7-5 .4.8-3.6 1.3-7.1.6-10.8v-.7l-.2-1c6.9-.3 13.8 0 20.7-.5"/><path fill="#320B75" d="M455 937c0-2.5-.7-9 .8-11.1q.3-.4.7-.4t.5.2c.6.6.7 1.8.6 2.6q0 3.8.2 7.5c-1 .8-1.5 1-2.9 1.3"/><path fill="#300A72" d="M461 936c0-2-.7-8.6.7-10.3q.3-.3.7-.3.6.1.8.7c.5 1.2.2 2.6.1 3.9s.7 4.6-.4 5.6l-.9.8z"/><path fill="#300A70" d="M451 936.4c-1-2.7-1.8-7.8-.5-10.4l.5-.5h.4q.6.5.6 1.4c.5 2.8.2 6.3.2 9.2z"/><path fill="#E3D5FB" d="m628 923.9.8.3q4.4 0 8.7-.6c-.6 4-.3 7.9-.9 11.8l-2.6.5-2 .8-2.4.2q-1.7-.2-3.5-.2l-3-.5-2.1.6-3.5-1.2q-.5-3-.4-6l.1-3.4c0-.5-.2-1.4.4-1.8 1.2-.9 8.6-.4 10.3-.5m9.6-.3c-.6 4-.3 7.9-.9 11.8l-2.6.5-2 .8-2.4.2c-.7-4.3-.6-8.4-.8-12.7q4.4 0 8.7-.6"/><path fill="#2F0A6E" d="m632 936.7-.2-6.2v-3q0-1.2.6-2h.4c.4.2.6 1 .7 1.3q.3 3.2.3 6.3l.2 2.8z"/><path fill="#4D11B5" d="M633.5 926.8q.3 3.2.3 6.3c-.7-1.3-1-2.2-.7-3.6l.2-1.1z"/><path fill="#320B75" d="m628 923.9.8.3c.2 4.3.1 8.4.8 12.7q-1.7-.2-3.5-.2c.6-4.5-.6-8.9 1.8-12.8"/><path fill="#2B0965" d="M621 936.8c0-2-.8-9.8.6-11.2q.3-.3.7-.2.4.3.6.9c.9 2.5.2 7.1.2 9.9z"/><path fill="#DCCAFA" d="m103.5 924.5-.2 1-.2 1-.5 7 .2 3.2q-2.2.3-4.7.2l-1.2-.1-4.4.1h-1.7L87 936c0-4.2.3-7.8.9-12q7.8 0 15.7.4"/><path fill="#290961" d="M90.8 936.8c-.3-1.7-.1-3 0-4.8v-3.6q0-1.5.9-2.6.3-.4.8-.3.4 0 .6.4c.6.8.2 2.2.1 3-.3 2.8 0 5.3-.7 8z"/><path fill="#2B0965" d="M97 936.8c-.4-1.6-.3-2.7-.2-4.3.2-1.7-.5-5.8.8-7.2q.3-.2.8-.2.6.4.9 1.1c.4 1 0 2.3 0 3.3-.5 3 0 4.6-1.2 7.4z"/><path fill="#380C84" d="M5.3 924.5a47 47 0 0 1 13.5-.4c4.1 2.2 2.4 6.9 2 11.5l-4.2 1.3-1.8-.6a12 12 0 0 1-7.7.6l-1-.8c-.7-.5-.6-1.9-.6-2.6q.3-4.5-.2-9"/><path fill="#DCCAFA" d="M18.8 924.1c4.1 2.2 2.4 6.9 2 11.5l-4.2 1.3-1.8-.6.3-9.3q1.3-.4 2.9-.6z"/><path fill="#290961" d="M15.1 927q1.3-.4 2.9-.6l-1.4 10.5-1.8-.6z"/><path fill="#DECEFA" d="M7.1 937q.8-3.7.8-7.5v-2c.1-.8.3-2 1-2.6.4-.2.4 0 .8 0 .5.7.6.8.5 1.6q-.2 3.6.3 7-.6 1.3-.2 2.5l.4.1c.5 0 1.1-.8 1.4-1 .6-2.8.4-6 1-8.6.1-.4.4-1.2.9-1.3h.4c.5.4.6 1.4.7 1.8l-.3 9.3a12 12 0 0 1-7.7.6"/><path fill="#2A0963" d="m10.5 933.6.8-5.4.2-1.2c.6 1 .3 3 .3 4.2l.3 3.9c-.3.2-.9 1-1.4 1l-.4-.1c-.4-.9 0-1.5.2-2.4"/><path fill="#DCCAFA" d="M677.4 924.3c-.4 3.8-.2 7.5-1 11.3l-3.4 1.3-2.5.1-1.8.3-3.6-.6q-1.5-.1-2.9-.5-.6-6 0-12.1z"/><path fill="#330B77" d="m665 936.7.1-7.2c0-1.8.2-3 1-4.5l.4.4v-.2q1.2 1.1 1 2.7 0 1-.3 2c-.5 2.8.5 4.9 1.5 7.4z"/><path fill="#2B0965" d="M670.5 937c.1-1.6-.1-10.4 1.4-11.3q.4-.2.7-.1.7.8.7 1.8l-.2 3.1v6.4z"/><path fill="#D4BFF9" d="M226 923.7c2.7.3 4.8.4 7.5.3h8q-.7 6.2-.1 12.3c-1.2-.5-2-.4-3.3-.4l-3 1h-3.7l-1.6-.7-2.6.6c-.6-4.4-.6-8.8-1.2-13.1"/><path fill="#330B77" d="M235.2 937c-.2-3.3-.7-8 .4-11.1q.3-1 1.1-1.3c.8 1.3 1 1.9 1 3.4q-.1 3 .1 6l.3 1.9z"/><path fill="#2D0A6A" d="M229.8 936.2c0-1.8-.7-9.7.9-10.9h.5c.4.3.6 1.2.7 1.7.2 1.8 0 4.1 0 6a13 13 0 0 1-.5 4z"/><path fill="#310B73" d="M341.1 924c5.2-1 10.6-.5 15.8-.8-1.3 5-1 8.7-1.2 13.8l-2.5-1.1-3.2.3-2.1.6-3.6-.6-1.6.8q-1-4.4-.6-9l.2-2.7q-.1-1-1.2-1.4"/><path fill="#C9AEF8" d="m344.3 936.2-.2-9.8c0-.5 0-1.4.5-1.8q.5-.8 1.4-.6c.7.3 1.1 1.3 1.3 2 .7 3.5.6 7.2.6 10.8z"/><path fill="#CFB8F8" d="M350 936.2c0-2.6-1-10 .9-12 .5-.5.3-.3 1.3-.2.8.6 1 1 1.1 2v2.5l-.1 7.4z"/><path fill="#DCCAFA" d="m593.5 923.5 1.6.5h2q3.6.1 7.2-.4l1.7.5.2 2q.6 5 .5 10.3l-2.5.4-3.3-.9-2.7 1.3-4.5-1.3c-.1 0-.9-.1-1-.4-.4-.4-.2-1.7-.2-2l.3-2.5q.1-3.8.7-7.5"/><path fill="#3A0C88" d="m604.3 923.6 1.7.5.2 2q.6 5 .5 10.3l-2.5.4q-.3-6.6.1-13.2"/><path fill="#300A70" d="m593.5 923.5 1.6.5c-.1 4.3.1 7.9-1.4 12-.1-.1-.9-.2-1-.5-.4-.4-.2-1.7-.2-2l.3-2.5q.1-3.8.7-7.5"/><path fill="#2F0A6E" d="M598.2 937.2c0-3-.3-8.3.8-10.9q.2-.6.7-.7l.6.2c1.4 1.1.7 8.4.6 10.1z"/><path fill="#AC82F4" d="M324 935.4v-3c0-2.4.3-4.4-.6-6.8l-.3-1 .1-.1c.9-.5 2.4-.6 3.3-.4.3 0 1 .2 1 .5.6 1.3 0 .5.6 1.3h.4l.5-.5 1.3-1.8q.6-.3 1.1-.2c.6.1 1.1.8 1.4 1.3q.3.7.8 1.2l.7-.4 1.1-1c.8-.6 1.2-.8 2.2-.7.6.5.4.3.7.8q0 .4-.3.7-1 1.4-1.8 2.9a7 7 0 0 0 .6 4.5l1 2.3-4.7 1.3-1.6.2-2.2.6a3 3 0 0 1-2.6-.6c-1.4-1-1.2-1-2.8-1.1"/><path fill="#300A72" d="M331.5 936.5c-.3-2-2.3-7.4-1-9.2q.1-.3.5-.5c.5 0 .5 0 .9.3.5 1 .2 2.2.2 3.4q.1 2.5.9 5l.1.8z"/><path fill="#EEE5FD" d="m587.7 923.6 1.7.5v8.4c-.1 2-.4 2.7-1.4 4.4l-4.4-.2c-1.3 0-1.6-.1-2.5-.9q-1.6-.2-3 0l.3-12.1 3.7-.1 1.7.5z"/><path fill="#DCCAFA" d="m578.4 923.7 3.7-.1c-.8 4-.8 8-1 12.2q-1.6-.2-3 0z"/><path fill="#400E96" d="m582 923.6 1.8.5q.1 6.4-.2 12.6c-1.3 0-1.6-.1-2.5-.9.2-4.1.2-8.1 1-12.2"/><path fill="#2F0A6E" d="m587.7 923.6 1.7.5v8.4c-.1 2-.4 2.7-1.4 4.4-1.8-4.2-1-9-.3-13.3"/><path fill="#E3D5FB" d="m576.5 923.4 2 .3-.5 12.1-2 1-3.1-.5-2.1.1-4-1 .1-7.4c0-.8-.5-2.8.3-3.5q1-.6 2.2-.5c2.6 0 4.6-.1 7.1-.6"/><path fill="#2D0A68" d="m570.8 936.4-.5-8q-.1-1.4.6-2.4.3-.4.7-.4.5 0 .8.4c1.5 1.9.5 7.9.5 10.3z"/><path fill="#300A70" d="m576.5 923.4 2 .3-.5 12.1-2 1 .1-5.3q-.1-4 .4-8"/><path fill="#E3D5FB" d="m434.1 935.5.6-1.7c.6-2.3.2-5.1.1-7.4q-.1-1 .4-2c1-.9 3.1-.4 4.3-.3h3c1 0 2.4-.1 3.3.6v.2h-.3v.1c-.2.4 0-.2 0 .3 0 1.9.2 1-.3 2a14 14 0 0 0 0 7.9l.9 1.6q-3.1.8-6.2.3-3-1-5.8-1.6"/><path fill="#2F0A6E" d="M439.9 937c-1-3-2.6-8.1-1.1-11.2q.5-1 1.2-1.8a19 19 0 0 1-.1 13"/><path fill="#C9AEF8" d="m368.7 924.4 5.5-.8c2.5 3 1 12.2 2.8 12.5q.6-.1.8-.7c.8-2.3 0-6.4 0-9 0-.4 0-1.6.3-2 .4-.4 1.4-.4 2-.3a2 2 0 0 1 1.4 1c1.2 2.3.2 8.6.2 11.2l-1.6.2q-1 .1-2.1.5c-1.5.4-2.8.1-4.3 0l-1.3-.1h-1.7c-1-4.4.7-8.5-2-12.5"/><path fill="#370C80" d="m368.7 924.4 5.5-.8c-2.1 4.5-.7 8.6-1.8 13.3h-1.7c-1-4.4.7-8.5-2-12.5"/><path fill="#CFB8F8" d="M253.7 937c1.8-3.4 1.2-6.3 1-10.1q-.2-1.4.7-2.4 1-.8 2.6-.5h5.2l1.1 2.6c-.5 3.8-.7 6.2.7 9.7q-3 .9-6 .9h-3c-1 0-1.4 0-2.3-.2"/><path fill="#350B7D" d="m258.6 924.5 1.5 1.2c1.3 1.5 1.2 5.6.9 7.4-.2 1.1-.5 1.2-1.4 2l-.8-.7c-1-.7-.3-8.5-.2-9.9"/><path fill="#D3BDF9" d="M678.7 936.6V928c0-1-.4-2.7.5-3.4 1.5-1.2 6.6-.4 8.5-.4v2c.2 3.7-.2 6.7.8 10.4q-2 0-4 .3c-.9.5-1 .4-2.2.4z"/><path fill="#380C84" d="M682.3 937.3c0-2.5.5-5 .2-7.5-.1-1.2-.5-2.7.2-3.8q.3-.9 1.1-1.2l.4.2c1.8 1.6.4 10 .2 11.9-.8.5-1 .4-2 .4"/><path fill="#D3BDF9" d="M606 924.1h6c.9 0 2.1-.1 2.8.5q.7.7.5 1.7l-.1 2.2q-.5 4.4.5 8.6-1.4-1-3.3-1.8l-2.6 1.6-3-.5q0-5.2-.6-10.3z"/><path fill="#370C80" d="m609.8 936.9-.3-8.8q0-1.7.6-3 .5 0 .8.4c1.2 1.4 1 3.9 1 5.5q0 2.1.5 4.3z"/><path fill="#E3D5FB" d="m109 923.4 2 .7c0 4.1.4 9-.7 12.8h-6.1c2.8-8.8-3.6-11.7 4.8-13.5"/><path fill="#300A70" d="m109 923.4 2 .7c0 4.1.4 9-.7 12.8h-1.5a36 36 0 0 1 .2-13.5"/><path fill="#E3D5FB" d="M223.3 922.9q1.4.3 2.7.8c.6 4.3.6 8.7 1.2 13l-3-.1q-1.5.4-3 .5l-.3-9.6V925c.3-1.3 1.3-1.6 2.4-2.2"/><path fill="#3C0D8D" d="M223.3 922.9q1.4.3 2.7.8c.6 4.3.6 8.7 1.2 13l-3-.1c-.3-4.7 0-9-.9-13.7"/><path fill="#EEE5FD" d="m415.8 923.9 3.8-.6q-.9 6.1-.7 12.4l-2.5.6q-1.5-.7-3.1-1c-.3-2.4-1.3-8.7.2-10.7.4-.6 2-.6 2.3-.7"/><path fill="#350B7D" d="m415.8 923.9 3.8-.6q-.9 6.1-.7 12.4l-2.5.6c0-4.2.7-8.4-.6-12.4"/><path fill="#DCCAFA" d="m427 923.3 2.7.6a84 84 0 0 0 0 9.7c0 .8 0 2-.6 2.6a1 1 0 0 1-.9.3q-.5-.1-.9-.5-1.4.1-3 .5c-.3-3.6 0-7.7-1-11.1l-.2-.8q.5-.5 1.4-.6z"/><path fill="#340B7B" d="m427 923.3 2.7.6a84 84 0 0 0 0 9.7c0 .8 0 2-.6 2.6a1 1 0 0 1-.9.3q-.5-.1-.9-.5l-.2-12.7"/><path fill="#D3BDF9" d="m383.4 937 .2-1.4c.3-2.1-1-10.4.5-11.3.5-.4 1.8-.5 2.5-.3q.9.3 1.1 1.1c1.3 3.3-.3 8.3-.1 12z"/><path fill="#E7DAFC" d="M560.2 937q1.4-4.6.9-9.5c-.1-.9-.5-2.2 0-3s1-.8 2-1q1 .3 1.7 1 .5 1 .3 2v2l-.2 4-.2 2.5q0 .5.4.9l.8.4q-2.9.6-5.7.7"/><path fill="#EEE5FD" d="m406.2 937 .4-1.4q.4-2 .3-4.1l.3-3q.2-1.8-.2-3.5c-.1-.4-.1-.2.1-.6a5 5 0 0 1 3.4-.4q.6.4.6 1c.4 3.4-.1 7.4-.6 10.7l-.1 1.5z"/><path fill="#DCCAFA" d="m390 935.4-.3-4.4.2-2v-2q0-1.6 1.3-2.7a2 2 0 0 1 1.8-.3q.5.1.7.7c.7 1.5-.3 3.4-.8 4.7l2.2.6.3 2 .3 1.1v.4q.1.8-.3 1.5l-1 1-.4.4-1-.3z"/><path fill="#27085C" d="m395.4 932 .3 1.1v.4q.1.8-.3 1.5l-1 1-.4.4-1-.3.5-3z"/><path fill="#5A13D3" d="m392.9 929.4 2.2.6.3 2-2 1z"/><path fill="#D3BDF9" d="m395 930 .5-1.4c.4-1.3.2-3.6 1.5-4.5.5-.3.4-.2 1-.3q.9.4 1.3 1.2c1 3.2-.1 8.4 0 11.8l-5.3-.4.3-.3 1.1-1.1q.5-.7.3-1.5v-.4l-.3-1z"/><path fill="#DCCAFA" d="M29.2 935.5q-.3-3.5 0-7a15 15 0 0 0-.1-3.8q.3-.5 1-.5c.6-.1 1.9-.4 2.4 0s.7 1.7.7 2.3v2L33 936z"/><path fill="#E3D5FB" d="m317 936.2 1-1c1.7-1.5.8-7 .8-8.8q-.1-1 .4-2 .4-.4 1.2-.4c.6 0 1.5 0 1.8.6s0 2 0 2.4v2.5c0 2.7 0 4.4.8 6.9-2.6.5-3.6.6-6-.2"/><path fill="#BB98F6" d="M341.1 924c.6.4 1.1.5 1.2 1.3l-.2 2.7q-.5 4.6.6 9l-4.4-.8.7-.4q.3-.3.1-.8c-.6-2-1.3-3.8-1-6 .5-2.6 1-3.6 3-5"/><path fill="#DCCAFA" d="M555.7 923.9c1 0 2.1-.2 2.9.7 1.4 1.7.3 9.4.2 11.7l-3.7-.1q0-6.2.5-12.3"/><path fill="#EAE0FC" d="M243.8 935.5a24 24 0 0 1-.5-8v-2.4q0-.5.2-.9c.6-.3 2.2-.5 3-.1q.6.3.6 1c.5 4-.2 7 1 11z"/><path fill="#E3D5FB" d="M357 923.2c1.2.7 1.8.9 2.1 2.3.8 3.6-1.2 7.2 1 10.6q-2.3.3-4.4.9c.2-5.1-.1-8.9 1.2-13.8m11.8 1.2c2.7 4 1 8 2 12.5q-2.5.4-5 .3c2-4.1.4-7.1 1.4-11.2.2-1 .8-1.1 1.6-1.6m-345.3 11c-.1-2.1-.8-9.3.8-11 .3-.4 1.3-.4 1.8-.3.5 0 .5 0 .9.3.5 1 0 2.5 0 3.6q-.1 4.3 0 8.7zm378.5 1.4-.3-2-.1-1c-.3-1.6-.2-8.3.8-9.4a2 2 0 0 1 1.2-.6q1 0 1.5.9c.6 1 .4 2.7.4 3.8v2q0 2.9-.3 5.6z"/><path fill="#EAE0FC" d="M215.1 924c6.6-.2 4 4.5 3.9 11.3l-3.4.7c-.2-4 0-8-.5-12"/><path fill="#DCCAFA" d="M419.6 923.3c1.3.6 2 .5 2.6 1.8.9 2.5-.2 8-.2 11l-3.1-.4q-.2-6.3.7-12.4"/><path fill="#290961" d="M21.7 881.8c12.1 1.5 40-1 49 1.3 6.7 2.8 99.5-.7 115.8 1l295 .1 106.8.5c16.1.1 35.9-.2 51.7.4l-.4-2.3c15.7 0 33.3-.5 48.9.3l3.5 1.6v7.3c-40.1 1.5-89.7 0-130.4 0l-293.5-.8-171.8.7c-18.6 0-62 1.4-78.7-.3.6-5 .3-5.6 4.2-8z"/><path fill="#8040EE" d="M21.7 881.8c12.1 1.5 40-1 49 1.3 6.7 2.8 99.5-.7 115.8 1-13.7 1.5-156.3 2.2-164.7-.5z"/><path fill="#7530EC" d="M639.6 882.8c15.7 0 33.3-.5 48.9.3l3.5 1.6a431 431 0 0 1-52 .4z"/><path fill="#6F27EB" d="M17.6 891.6c16.6 1.7 60 .4 78.7.3l171.8-.7 293.5.8c40.7 0 90.3 1.5 130.4 0v2H18.7c.5 8.3.5 15.5.4 23.8 117.4-1.3 233.4.4 350.5 0q111-1 221.8-.6c32.8 0 67.5-.7 100.1 0l-.1 2.2-2 .9c-15.5-1.2-43.6-.2-60.1-.2H186.7c-58.3 0-125.4 1.6-183-.6 4.2-.8 10-.6 14.4-.6q.1-13.7-.5-27.2"/><path fill="#2A0963" d="M25 789.3c3.7-.6 39-.1 43.2.4l5.6.6.8-.6c1.9.4.7 6.8.3 8.2-.8 7-4.2 2.7-6.3 3.9-.5.8-.4 10-.7 12.6 0 20.7 2.2 47.1 2.8 68.7-9-2.2-36.9.2-49-1.3 1-19.4 1.5-38.9 3-58.3.4-6.5 0-13.1 1-19.6l2.2-4.4c-6.8-4-10.3 2.8-11-7.4l-.3-1.8c3.3-.4 6.1.5 8.5-1"/><path fill="#29095F" d="M25 789.3c3.7-.6 39-.1 43.2.4l5.6.6.8-.6c1.9.4.7 6.8.3 8.2h-2c-2.2.2-4 1-6.4.7-1.6-.2-3.1.5-4.7-.1-.8-.3-2.6.3-3.3.4-1.6.6-2.3-1.5-4-.7l-1 .8c-2.1.9-3.2-1.6-6-.3-1.8.8-5.3-1.8-7.3.5-1.1 1.2-2.7-1.8-3.7-1-3.5 2.6-2.2 1-5.5 0-.8-.3-2 1.6-2 2l-.4.1-.4-.4-.3-.4c-6.8-4-10.3 2.8-11-7.4l-.3-1.8c3.3-.4 6.1.5 8.5-1"/><path fill="#5412C6" d="M25 789.3c3.7-.6 39-.1 43.2.4l5.6.6c-11.2 2.4-45.7 2-57.2 0 3.3-.4 6.1.5 8.5-1"/><path fill="#C9AEF8" d="m27.9 799.5.3.4.4.4.3-.2c.1-.3 1.3-2.2 2.1-2 3.3 1 2 2.7 5.5 0 1-.7 2.6 2.3 3.7 1.1 2-2.3 5.5.3 7.3-.5 2.8-1.3 3.9 1.2 6 .3l1-.8c1.7-.8 2.4 1.3 4 .7.7-.1 2.5-.7 3.3-.4 1.6.6 3.1 0 4.7.1 2.3.4 4.2-.5 6.5-.6l1.9-.1c-.8 7-4.2 2.7-6.3 3.9-.5.8-.4 10-.7 12.6-2.2-13 2.7-11.3-12.7-11-8.3 0-17.5-.8-25.8.1l-3.7.4z"/><path fill="#2A0963" d="M642.7 803.5c10.4.6 22.7 0 33.3 0a60 60 0 0 0 8-.7c1.6 6 1 17.9 1.3 24.7.8 18.3 2.6 37.4 3.2 55.6-15.6-.8-33.2-.3-48.9-.3-.9-5 2-72.9 3.1-79.3m-613.8-101c7.7-.9 27.5-.7 35.3.1v1.1c2.1-.3 7-1.6 7.5 1.6.3 1.6-.1 5.4-1 6.6q-.7.8-1.6.8h-2c-.6 2-.5 1.8-1.7 3.3a670 670 0 0 0 2.8 73.7c-4.3-.5-39.5-1-43.1-.4C25 765 27.7 741 27 715.8l-1.2-2c-7.4-.7-8.1-10.6-3-10.4q3.1-.3 6.1-1"/><path fill="#290961" d="M28.9 702.5c7.7-.9 27.5-.7 35.3.1v1.1c2.1-.3 7-1.6 7.5 1.6.3 1.6-.1 5.4-1 6.6q-.7.8-1.6.8h-2c-.6 2-.5 1.8-1.7 3.3-12.1-.6-26.2-.3-38.4-.2l-1.2-2c-7.4-.7-8.1-10.6-3-10.4q3.1-.3 6.1-1"/><path fill="#D2BBF9" d="m25.8 713.8 1.4-1.4c2.4-2.2 6.1-.3 8.6-.6.5 0 .4-.9 1.7-1 .7.3.7.5 1.3 1.2 1.7 2.1 3.2-1.6 4.2-1.3 2 .7 2.2 3.4 4.7.7 1.7-2 2.6 1 3.9 1.1q.5 0 1-.3c3.3-4 2.5 1 5 0 .3 0 .7-1.6 1.9-1.8 1 .6 2 2.7 3.1 2.1 2.5-1.1 1.9-2.6 4.6.3-.7 1.8-.6 1.7-1.8 3.2-12.1-.6-26.2-.3-38.4-.2z"/><path fill="#6518EA" d="M28.9 702.5c7.7-.9 27.5-.7 35.3.1v1.1c-7.7.5-34 .8-41.3-.3q3-.3 6-1"/><path fill="#2A0963" d="M643.7 716.7c4.8-2.3 14.8-.5 21-1 4.4.6 11.7.2 16.3.3 2.2 22 2.3 51 3.2 73.8v1.3l-.7.6c-.3 2.6-.5 4.4-1 6.9l2.7.7c-1 1.6-.8 1.5-1.1 3.5a60 60 0 0 1-8.1.7c-10.6 0-22.9.6-33.3 0-1-1.7-1.3-2.4-2.1-4.2l-2.2-.3c-8.2-.9-4.6-9.3-2-10.6l.5.2q.3.8.1 1.8c.2.2 4.2 1.4 4.7 1.6.1-7.6-.5-15.3 1.1-22.6.5-8.2 3.2-47.2.9-52.7"/><path fill="#29095F" d="m640.6 799.3-2.2-.3c-8.2-.9-4.6-9.3-2-10.6l.5.2q.3.8.1 1.8c.2.2 4.2 1.4 4.7 1.6 13-.7 28 .3 41.8-.3-.3 2.6-.5 4.4-1 6.9l2.7.7c-1 1.6-.8 1.5-1.1 3.5a60 60 0 0 1-8.1.7c-10.6 0-22.9.6-33.3 0-1-1.7-1.3-2.4-2.1-4.2"/><path fill="#E1D1FB" d="M640.6 799.3c2.8-3.3 5.2.7 5.7.4 3.7-1.8 4.8.1 7.6-1 3.4-1.2 2.1.5 3.7 1.4 2.3-1 4-2.7 6.9-1.2 4.5 2.3 2.7-2.7 6.5.3.4.3 4.1-2.2 6.4 0-.5-.5 4.7-.6 5-.6l2.8.7c-1 1.6-.8 1.5-1.1 3.5a60 60 0 0 1-8.1.7c-10.6 0-22.9.6-33.3 0-1-1.7-1.3-2.4-2.1-4.2"/><path fill="#894DEF" d="M641.7 792c.1-7.6-.5-15.3 1.1-22.6.2 6.8-.1 13.6 0 20.5 9.9.2 32 .6 41.4 0v1.2l-.7.6c-13.7.6-28.7-.4-41.8.3"/><path fill="#2A0963" d="M671 625.3c1-.1 2.9-.5 3.8-.5 1.8 1 1.7 1 3.7 1.4l1.4 2.2c5.6.8 5 6.3.3 6.6-1 4.6-.8 7.3-1.3 12-1 16.4 1.2 38.4.9 55.9l1.6 1.7c-4.9.8-7.2.3-12 .4H668a51 51 0 0 0 4 6.3c-3.2.8-3.8-.1-5.9.4l-1.3 4c-6.3.5-16.3-1.3-21.1 1-2.5-1.5-2.3-1.7-1.8-4.6-3.3-.1-5-.2-5-4v-1.6c.1-6.5 2.6-3.8 8.1-1.6q-.1-6 .9-12c.3-13.4 1.6-28.9 1.2-41.9-.6-5.3.4-11.8-.2-15.8-6.5-.3-9.6-7.2 2-6.5v-2.8c3.8-.1 8 1 11.2-.8 2.8-.2 4.2-.3 6.9 0 1.7 1 2.1 1 4 .2"/><path fill="#290961" d="M641.9 712.1c-3.3-.1-5-.2-5-4v-1.6c.1-6.5 2.6-3.8 8.1-1.6 7.2.6 15.5-.1 23 .1a51 51 0 0 0 4 6.3c-3.2.8-3.8-.1-5.9.4l-1.3 4c-6.3.5-16.3-1.3-21.1 1-2.5-1.5-2.3-1.7-1.8-4.6"/><path fill="#D9C6FA" d="M641.9 712.1c1.5.4 1.3.5 2-1 1.7-3.2 3 1.9 4.6 1.9.6-.4.5-4 2.6-2.5l1 1c2.7 1.8 2.1-3.5 5.4.4 1.7 2 2.4-1 3.5-1l5.1.8-1.3 4c-6.3.5-16.3-1.3-21.1 1-2.5-1.5-2.3-1.7-1.8-4.6"/><path fill="#2C0967" d="M671 625.3c1-.1 2.9-.5 3.8-.5 1.8 1 1.7 1 3.7 1.4l1.4 2.2c5.6.8 5 6.3.3 6.6-5.5-1.4-28.6-1.8-33.3.2-6.5-.3-9.6-7.2 2-6.5v-2.8c3.8-.1 8 1 11.2-.8 2.8-.2 4.2-.3 6.9 0 1.7 1 2.1 1 4 .2"/><path fill="#E7DAFC" d="M671 625.3c1-.1 2.9-.5 3.8-.5 1.8 1 1.7 1 3.7 1.4l1.4 2.2c-8.5.5-22 .2-31 .3v-2.8c3.8-.1 8 1 11.2-.8 2.8-.2 4.2-.3 6.9 0 1.7 1 2.1 1 4 .2"/><path fill="#C6A9F7" d="M647 635.2c4.6-2 27.7-1.6 33.2-.2-1 4.6-.8 7.3-1.3 12-.1-1-.4-9.6-1.1-9.6-9.7-.8-20-.4-29.8-.5-.2 5-.1 9.1-.9 14.1-.6-5.3.4-11.8-.2-15.8"/><path fill="#6115E3" d="M645.9 692.9c0 1.1 0 8.8.6 9 8.5 2 25-.7 33.3 1l1.6 1.7c-4.9.8-7.2.3-12 .4H668c-7.5-.2-15.8.5-23-.1q-.1-6 .9-12"/><path fill="#2A0963" d="m61 626.4.7 1.2 3.4-.1c2.6 2.8 3 5.2-.3 7.5-2 .3-2.8 0-3.9 1.6a798 798 0 0 0 3.3 66c-7.8-.8-27.6-1-35.3-.1 0-13.8 2.3-47.1 1.2-58-.4-4 .7-7.4-2-9.6-4.1-.6-8-6.5 4-6.7l.4-2c8-1 16.4-.4 24.5-.4z"/><path fill="#2C0967" d="m61 626.4.7 1.2 3.4-.1c2.6 2.8 3 5.2-.3 7.5-2 .3-2.8 0-3.9 1.6-7.6 1.5-19.4.3-27.5.6-4 .1-2.7 2.8-3.3 7.3-.4-4 .7-7.4-2-9.6-4.1-.6-8-6.5 4-6.7l.4-2c8-1 16.4-.4 24.5-.4z"/><path fill="#D6C1F9" d="m61.7 627.6 3.4-.1c2.6 2.8 3 5.2-.3 7.5-2 .3-2.8 0-3.9 1.6-7.6 1.5-19.4.3-27.5.6-4 .1-2.7 2.8-3.3 7.3-.4-4 .7-7.4-2-9.6 5.6-1 12-.1 16.9-.8 9.6-1.3 18.6 5 16.7-6.5"/><path fill="#300A70" d="M65.1 627.5c2.6 2.8 3 5.2-.3 7.5-1.4-3.7-1.2-3.9.3-7.5"/><path fill="#D9C6FA" d="m61 626.4.7 1.2c-6.9.7-22.4.9-29.6.6l.4-2c8-1 16.4-.4 24.5-.4z"/><path fill="#290961" d="m45.3 573.2 3 .8c13.2 6.8 12 11.7 12.9 25l.6 3-2.5 4c1 7.8 0 12.6 1.8 20.4l-4.1-.6c-8 0-16.6-.5-24.5.5-1-6.1-.4-13.5-.8-20.1-.8-2.4-.5-3.3-1.8-5.6q.6-1 1.5-1.7c-1.2-15.4 1-17.5 13.9-25.7"/><path fill="#2A0963" d="M31.7 606.2c2.4 3 2.2 7.2 2.6 10.8.8-5.3 0-8 5.8-6l2-.5c3-.8 3.8-.4 7-.2.8.7.9.6 1.8.7 3.5-.5 4.7-.6 7.1 1.9.7-1.9.8-4.6 1.3-6.9 1 7.8 0 12.6 1.8 20.4l-4.1-.6c-8 0-16.6-.5-24.5.5-1-6.1-.4-13.5-.8-20.1"/><path fill="#FFF" d="M58 612.9c.7-1.9.8-4.6 1.3-6.9 1 7.8 0 12.6 1.8 20.4l-4.1-.6.2-1.1c-9.2-1.2-5.6-3.3-6.3-13.7 3.5-.5 4.7-.6 7.1 1.9"/><path fill="#2C0967" d="M58 612.9c.7-1.9.8-4.6 1.3-6.9 1 7.8 0 12.6 1.8 20.4l-4.1-.6.2-1.1c.6-4.1.4-7.6.8-11.8"/><path fill="#FFF" d="M42 610.5c3.1-.8 4-.4 7.2-.2-.3 4.1.3 9.6-.8 13.2-.3.8-5 1-5.6-.2-1.5-2.5-.8-10-.8-12.8"/><path fill="#F2EBFD" d="M34.3 617c.8-5.3 0-8 5.8-6-.1 2.6.5 11.3-1 12.4-4.9 3.6-4.8-6.5-4.8-6.4"/><path fill="#2A0963" d="m661.4 572.1 1-.5c6.4 6.6 9 3.5 15.3 14.6l1.2 2c-.1 4-.7 8.4-.7 12l.2 1.9c-1.4 7.4-.9 16.6.1 24.1-2-.4-1.9-.3-3.7-1.4-1 0-2.9.4-3.8.5-1.9.8-2.3.8-4-.2-2.7-.3-4.1-.2-6.9 0-.5-4.8-.3-9.2-.4-14l-1.8.7-3.7-4.2-5.5-4-1.2-2-1-2.8c3.1-10.4-.1-16 10.8-23.2a29 29 0 0 0 4-3.5"/><path fill="#FFF" d="M669.1 609.2h1.5c7 0 4.5 10 4.2 15.6-1 0-2.9.4-3.8.5-1.9.8-2.3.8-4-.2-2.7-.3-4.1-.2-6.9 0-.5-4.8-.3-9.2-.4-14 3-2.5 3.8-1.6 7.6-2zm-9.4 1.9c3-2.5 3.8-1.6 7.6-2-.8 6.1-.4 9.8-.3 16-2.7-.3-4.1-.2-6.9 0-.5-4.8-.3-9.2-.4-14"/><path fill="#2A0963" d="m667.3 609.1 1.8.1c-.2 6-1.1 11 2 16-2 1-2.4 1-4.1-.1 0-6.2-.5-9.9.3-16"/><path fill="#2B0965" d="M549.2 616.8c-7.5-8.7-3.8-1.4-.7-11.7 1.2.6.8 4 2 4.8 1.1.6 3.4.6 3 2-4 2.1-3.2-.6-3 4.2.3 5.7.6 13 .2 18.7.6 17.5.3 32.5 1.3 50.4l-1 .7c-.2-.2-4.2-2.5-4.2-2.9-2-19.3.3-39.4-.6-59-.2-4.4 0-4.1 3-7.2"/><path fill="#3B0D89" d="M549.2 616.8c-7.5-8.7-3.8-1.4-.7-11.7 1.2.6.8 4 2 4.8 1.1.6 3.4.6 3 2-4 2.1-3.2-.6-3 4.2.3 5.7.6 13 .2 18.7-1.5-2.3-.7-13.5-1.5-18"/><path fill="#290961" d="M355.9 395.3c-12.8-11.2 2-16.4 2.1-17.6-2.8-4-12.1-5.7-1-15h.8c6.8 3.2 8.7 10.2 1.4 14.7 3.9 7.5 11.4 7.6 1.6 17.3-2.2 0-2.7.2-5 .6"/><path fill="#2E0A6C" d="m648.7 603.6 5.5 4 3.7 4.2 1.8-.7q0 7 .4 14c-3.3 1.7-7.4.7-11.2.8 2-9.4-2.7-15-.2-22.3"/><path fill="#FFF" d="m654.2 607.6 3.7 4.2c.5 23.4-11.7 10-3.7-4.2"/><path fill="#2A0963" d="m171.7 656.2 3.8-.3c1.3 8.2-.3 16.7 1.2 24.5 0 .5 2.7 1 3 1.2-1.5 1-3 1.5-4.6 2.5l-4.2.6c0-5.8-.4-24 .8-28.5"/><path fill="#290961" d="M681.4 704.6c8.1-.3 3.3-1.7 6.1-2.1 1.2.5 1.6 7 1 8.3-.4 1-6 .7-7 .7-1.8 0-8.3.5-9.5-.2a51 51 0 0 1-4-6.3h1.5c4.7-.1 7 .4 11.9-.4"/><path fill="#2D0A68" d="m356.2 345.8 2.5-.6c1.6 11 6.2 11-1 17.4l-.7.1c-5.6-7.7-1.8-6.3-.8-16.9"/><path fill="#320B75" d="m538.4 645.7 1.8 2.5 2.5 4.4.5 1.7c-.6 2-.6 2-1.6 3.8h-6l1.4-2.3c-2-1.1-7.1-2.7-2.9-4 2.8-3 3.2-2.4 4.3-6"/><path fill="#5713CB" d="m538.4 645.7 1.8 2.5 2.5 4.4c-4.6.9-4 .7-8.6-.9 2.8-2.9 3.2-2.3 4.3-6"/><path fill="#C8ADF7" d="M543.2 654.3c-.6 2-.6 2-1.6 3.8h-6l1.4-2.3c2.4-.8 3.8-1 6.2-1.5"/><path fill="#2D0A6A" d="M684.3 791c.7 0 6.3-1.2 6.5-.8 2.7 8.1-.7 8.7-5.6 9.1l-2.8-.7c.6-2.5.8-4.3 1.1-6.9z"/><path fill="#330B77" d="M584.9 643.8c1.7-1.3 3.1-1.8 3.6-3.7-1.9-1.6-3.6 1-5-.4-.2-2.3 2.3-2.7 4-2.8 2.3 0 1.5-3.4 2-4.8h.1l-.2.9.6.5c.3 4.8 3.5 2.7 4.4 5.4-.8 2.8-5.7-2.3-4.2 2.5.2.9 1.2 0 1.5 2.4l-.7 2c-2.7.3-3 .2-5.5 1.1-1-1.4-.8-1.3-.6-3"/><path fill="#EDE4FC" d="M584.9 643.8h6.8l-.7 2c-2.7.3-3 .2-5.5 1.1-1-1.4-.8-1.3-.6-3"/><path fill="#2E0A6C" d="M225 564.9q1 3.4 2.2 6.6c-.5 6.6-1 4.8 2 9.2-.1.7-.9 1-1.3 1.5v1.7l-5.3-.3-.2-1.7c-.3-.5-1-1-1-1.6.7-1.3 3-.2 4-1.3-.2-4.5-2.8-6-.5-14.1"/><path fill="#935CF0" d="M222.4 581.9c2 0 3.5.1 5.5.3v1.7l-5.3-.3z"/><path fill="#8142EE" d="M171 655c-.6-.3-3.2-1.1-3.5-1.7-.8-1.6 3.2-1 4-2.2 1.2-1.6 0-5.7 1.2-6.7l.4.1c.6.5 2 4.7 2.7 5.9 5.5-2.9 1.6 3.6-.3 5.5l-3.8.3z"/><path fill="#3E0D91" d="M171 655c-.6-.3-3.2-1.1-3.5-1.7-.8-1.6 3.2-1 4-2.2 1.2-1.6 0-5.7 1.2-6.7l.4.1c.6.5 2 4.7 2.7 5.9l-1 1.3a10 10 0 0 1-3.8 3.3"/><path fill="#430E9E" d="m159.3 601.8.4 2.7c.3 1.9.6 4.1 2.3 5.3.7.5 1.7.9 2 1.8q-.5.6-1.2.8c-.8.3-1.2.4-1.7 1.2-1.4 2.6-2.1 2.7-4.9 4 .5-1.2 1.7-3.1 1.4-4.5q0-.3-.3-.4l-.7.1-1.2.5q-.5 0-.8-.4a3 3 0 0 1-.2-1.8q.3-.9 1.1-1.1l1.6-.8q1-.6 1-1.6.5-3 1.2-5.8"/><path fill="#2D0A68" d="M485.6 580.5c3.1-7.4.3-16.9 2.1-18.8v.3l.8.2-.3-.4c2.2 5 1.2 10.1 2.7 15.4z"/><path fill="#2E0A6C" d="M125.3 634c1.7 1.4 3.6 2.1 4.5 4h.1c0 1.3-2.5 0-3.6.4l-.2.6-.1 1.4a7 7 0 0 1-3.3 1.6h-.4l-.5-.1q-.6-.5-.6-1.4l-.3-2.2q-.5-.3-.8-.9-.2-.7.2-1.2.3-.4.7-.3c.3 0 1 .6 1.1.9q.6.8 1.3 1.2h1.1l-.2.2c1.5-2.3-1.1-1.2-.5-4z"/><path fill="#2C0967" d="m646.5 598.8 1 2.8c-1.2-.1-9.5 0-10-1.3h.2v-.6a22 22 0 0 1 8.8-1"/><path fill="#3A0C88" d="m45.2 565 1.6.2 1.5 8.8-3-.8c-.4-3.3-.3-4.8-.1-8.2"/><path fill="#290961" d="M678.2 600.3c11.4-1.2 16.3 1.8.2 1.8z"/><path fill="#2F0A6E" d="M61.2 599c1 0 9-.2 9.4 2 0 .2-.7.6-.9.6-2.3.4-5.5.3-7.9.4z"/><path fill="#3B0D89" d="M30 600.6c-9.9 2.8-13.7-1 1.4-1.7q-.9.7-1.5 1.7"/><path fill="#5512C8" d="M356.2 345.8c0-1.1.5-6.6 1.5-7.2 1.7.6 1 5.3 1 6.6z"/><path fill="#4F11B9" d="M225 564.9c-.4-1.8-.8-5 .4-6.5h.1c.9 1 1.6 11.1 1.7 13.1z"/><path fill="#6E25EB" d="m538.4 645.7-.4-3.6c-.1-1.6-.1-1.4.8-2.5h-.5c.2-.5 0-.4.5-.5 1.9.5 1.3 7.6 1.4 9q-1-1-1.8-2.4"/><path fill="#5C14D8" d="M660.5 570c.3-1.4 1.4-8.5 2-9.2l.2.1c.5 2.1.3 4.2.4 6.4z"/><path fill="#300A72" d="M663 567.3c.2 2 0 2.2-.5 4.3l-1.1.5-.9-2.1z"/><path fill="#5512C8" d="M123.8 634.2c-1.6-6.3 1-8 1.5-.2z"/><path fill="#6215E7" d="M45.2 565c0-.9-.4-3.3.8-3.7 1 .4.8 3.1.8 3.9z"/></svg>